<svg width="12" height="15" viewBox="0 0 12 15" fill="none" xmlns="http://www.w3.org/2000/svg">
<path d="M11.2497 15H9.99972V11.8482C9.99923 11.3582 9.80436 10.8884 9.45788 10.542C9.11141 10.1955 8.64163 10.0006 8.15165 10.0001H3.09804C2.60805 10.0006 2.13828 10.1955 1.7918 10.542C1.44533 10.8884 1.25046 11.3582 1.24997 11.8482V15H0V11.8482C0.000992365 11.0269 0.32771 10.2394 0.90849 9.65865C1.48927 9.07787 2.27669 8.75115 3.09804 8.75016H8.15165C8.97299 8.75115 9.76042 9.07787 10.3412 9.65865C10.922 10.2394 11.2487 11.0269 11.2497 11.8482V15Z" fill="white"/>
<path d="M5.6249 7.49979C4.88324 7.49979 4.15823 7.27986 3.54157 6.86782C2.9249 6.45577 2.44427 5.87012 2.16045 5.18492C1.87662 4.49971 1.80236 3.74574 1.94705 3.01833C2.09175 2.29092 2.44889 1.62275 2.97332 1.09832C3.49775 0.573888 4.16592 0.216745 4.89333 0.0720548C5.62074 -0.0726356 6.37472 0.00162478 7.05992 0.285445C7.74512 0.569266 8.33078 1.0499 8.74282 1.66657C9.15487 2.28323 9.37479 3.00824 9.37479 3.7499C9.3738 4.74412 8.9784 5.69735 8.27538 6.40037C7.57235 7.1034 6.61913 7.4988 5.6249 7.49979ZM5.6249 1.24997C5.13046 1.24997 4.64712 1.39658 4.23601 1.67128C3.8249 1.94598 3.50448 2.33641 3.31526 2.79321C3.12605 3.25002 3.07654 3.75267 3.173 4.23761C3.26946 4.72255 3.50756 5.16799 3.85718 5.51761C4.2068 5.86723 4.65225 6.10533 5.13719 6.20179C5.62212 6.29825 6.12478 6.24874 6.58158 6.05953C7.03838 5.87032 7.42882 5.54989 7.70351 5.13878C7.97821 4.72767 8.12483 4.24433 8.12483 3.7499C8.12483 3.08687 7.86144 2.45101 7.39262 1.98218C6.92379 1.51335 6.28792 1.24997 5.6249 1.24997Z" fill="white"/>
</svg>
