<svg width="68" height="17" viewBox="0 0 68 17" fill="none" xmlns="http://www.w3.org/2000/svg">
<path d="M61.4742 16.9086L66.1005 4.14302C66.1005 4.14302 62.6424 4.14302 59.1838 4.83741L54.8103 16.9086L61.4742 16.9086ZM60.6848 0.694587L59.7969 3.14676C63.2763 2.45137 66.713 2.45137 66.713 2.45137L67.6012 0C67.6015 0.000421915 64.1435 0.000421903 60.6848 0.694587ZM35.7142 16.2138C38.0639 16.6691 40.4915 16.9086 42.975 16.9086H42.9758C46.917 16.9086 48.5371 16.5163 50.5818 15.4722C52.3239 14.5807 53.469 13.6349 53.9612 12.0059C54.383 10.6101 53.844 9.29264 52.5937 8.45437C51.3428 7.6163 50.1313 7.22012 48.6929 6.42611C47.4343 5.73214 46.7483 5.20904 46.8322 4.48112C47.0088 2.95398 48.6405 2.45133 50.8888 2.45133C53.08 2.45133 55.2239 2.64982 57.304 3.02916L58.1508 0.694549C55.801 0.239801 53.3724 0 50.8889 0C46.9474 0 45.3281 0.392228 43.2831 1.437C41.5404 2.3282 40.3955 3.27398 39.9032 4.9038C39.4816 6.29942 40.0204 7.61603 41.2718 8.45414C42.5216 9.29211 43.7325 9.68878 45.1724 10.4839C46.4301 11.1776 47.1172 11.7003 47.0317 12.4281C46.8548 13.9558 45.2234 14.4563 42.9758 14.4563H42.9747C40.7849 14.4563 38.6407 14.2584 36.5599 13.8783L35.7142 16.2138ZM33.1785 16.9086L37.4677 5.072C37.8164 4.11241 37.8389 2.38325 36.8755 1.43812C35.9113 0.489383 34.7631 0.000383559 32.6409 0.000383559C30.5189 -0.000306847 28.7961 0.557196 27.4117 1.09997C26.6674 1.38998 25.5623 1.95715 24.3122 2.71453C24.1914 2.23465 23.9712 1.7847 23.6189 1.43839C22.6541 0.48969 21.5059 0.000690407 19.3842 0.000690407C17.2614 0.000115068 15.54 0.557503 14.1547 1.10028C13.4107 1.39025 12.3054 1.95742 11.0553 2.71479C10.9347 2.23492 10.7142 1.78501 10.3619 1.43865C9.3974 0.489997 8.24951 0.000997254 6.12701 0.000997254L0 16.9097H6.66467L9.72862 8.45437C10.284 6.92094 11.7954 5.46066 12.6251 4.81923C13.6805 4.00367 18.4037 2.70536 17.1171 6.25639L13.2572 16.9086H19.9222L22.9859 8.45269C23.5418 6.91979 25.0529 5.46039 25.882 4.81927C26.9374 4.00371 31.6607 2.7054 30.3737 6.25643L26.5139 16.9086H33.1785Z" fill="white"/>
</svg>
