<svg width="73" height="17" viewBox="0 0 73 17" fill="none" xmlns="http://www.w3.org/2000/svg">
<path fill-rule="evenodd" clip-rule="evenodd" d="M20.1425 4.74963C20.191 4.4586 20.385 4.31309 20.9671 4.31309H23.5378L22.5192 10.0366C22.3252 11.0552 22.2282 11.3947 23.4408 11.3462H27.3697L27.0786 11.8798C26.8361 12.2678 26.6906 12.3648 26.2541 12.3648H19.803C19.1239 12.3163 18.8329 12.2193 18.8814 11.7828L20.1425 4.74963ZM31.3955 11.9283C31.2985 12.2678 30.959 12.3163 30.6195 12.3163H28.4368H28.1457C28.5823 9.79409 29.0188 7.22335 29.4554 4.70113C29.5524 4.31309 29.9404 4.26459 30.2799 4.26459H32.7537C32.2686 6.83532 31.8321 9.40605 31.3955 11.9283ZM45.0738 4.31309C44.7342 4.31309 44.3462 4.3616 44.2492 4.74963C43.8612 6.98083 43.4731 9.16353 43.0851 11.3947H41.9695L40.1748 4.31309H37.7496C36.731 4.3616 36.5855 4.60412 36.1005 5.42869L32.1231 12.3648H34.2573C34.8878 12.3648 35.0819 12.1708 35.3244 11.7828C35.4699 11.5402 35.5184 11.4432 35.6154 11.2492H37.0705C37.5071 11.2492 37.6526 11.1522 37.8466 10.8612C37.9436 10.6672 38.0891 10.4731 38.1861 10.2791H36.149L37.9921 6.98083L39.0592 12.3648H44.8312C45.6073 12.3163 46.0439 11.9283 46.1409 11.3462L46.7714 7.7084L49.4392 12.3163H51.5734C51.9129 12.3163 52.2039 12.1223 52.2524 11.8313L53.562 4.31309H51.1853C50.8943 4.31309 50.5548 4.3616 50.4577 4.70113L49.7302 8.92101L47.0624 4.31309C46.4319 4.31309 45.7528 4.31309 45.0738 4.31309Z" fill="white"/>
<path fill-rule="evenodd" clip-rule="evenodd" d="M59.5767 4.74963C59.6252 4.4586 59.8192 4.31309 60.4012 4.31309H62.9235L61.9049 10.0366C61.7109 11.0552 61.6139 11.3947 62.8265 11.3462H66.7553L66.4643 11.8798C66.2218 12.2678 66.0763 12.3648 65.6397 12.3648H59.2856C58.6066 12.3163 58.3156 12.2193 58.3641 11.7828L59.5767 4.74963ZM70.7812 11.9283C70.6842 12.2678 70.3446 12.3163 70.0051 12.3163H67.8224H67.5314C67.9679 9.79409 68.4045 7.22335 68.841 4.70113C68.938 4.31309 69.3261 4.26459 69.6656 4.26459H72.1393C71.6543 6.83532 71.2177 9.40605 70.7812 11.9283Z" fill="white"/>
<path d="M65.6397 12.5104H59.2856C58.8005 12.4619 58.5095 12.4133 58.3155 12.2193C58.2185 12.1223 58.17 11.9768 58.2185 11.7828L59.4311 4.74965C59.5281 4.26461 59.9646 4.21611 60.4012 4.21611H63.0689L62.0018 10.1336C61.9048 10.6187 61.8563 10.9097 61.9533 11.0552C62.0503 11.1522 62.2929 11.2007 62.7779 11.2007H66.9493L66.5612 11.9283C66.3187 12.3648 66.1247 12.5104 65.6397 12.5104ZM60.4012 4.45863C59.8191 4.45863 59.7221 4.60414 59.7221 4.79816L58.5095 11.8313C58.5095 11.9768 58.5095 12.0253 58.558 12.0738C58.655 12.2193 58.9946 12.2193 59.2856 12.2678H65.6397C66.0277 12.2678 66.1247 12.2193 66.3672 11.8313L66.5612 11.4918H62.8749C62.2929 11.4918 62.0018 11.4433 61.8078 11.2492C61.6138 11.0067 61.6623 10.6672 61.7593 10.0851V9.98813L62.7294 4.41012H60.4012V4.45863ZM70.0051 12.4619H67.3858L67.4343 12.3163C67.6768 11.0552 67.8709 9.79411 68.1134 8.48449C68.3074 7.22338 68.5499 5.96226 68.7439 4.70115C68.8895 4.1676 69.4715 4.1676 69.714 4.1676H72.3333L72.2848 4.31312C71.8482 6.49581 71.5087 8.72701 71.1207 10.8612L70.9266 11.9768C70.7811 12.4619 70.2476 12.4619 70.0051 12.4619ZM67.6768 12.1708H70.0051C70.3931 12.1708 70.5871 12.0738 70.6356 11.8798L70.8296 10.7642C71.1692 8.67851 71.5572 6.54432 71.9452 4.41012H69.617C69.1805 4.41012 68.9865 4.50713 68.938 4.74965C68.7439 6.01077 68.5014 7.27188 68.3074 8.533C68.1134 9.74561 67.9194 10.9582 67.6768 12.1708Z" fill="white"/>
<path fill-rule="evenodd" clip-rule="evenodd" d="M5.30029 0.481318C9.47167 -1.02232 14.0796 1.11187 15.6317 5.28325C17.1354 9.45463 15.0012 14.0625 10.8298 15.6147C6.65842 17.1183 2.0505 14.9841 0.498361 10.8128C-0.95677 6.8839 0.886397 2.56701 4.57273 0.772344C4.81525 0.675335 5.05777 0.578326 5.30029 0.481318ZM7.09496 0.966361L5.63983 9.35762L10.9268 6.39885L10.7328 7.61146L2.77807 12.0739L2.14751 11.5403L3.74815 2.37299C1.27443 4.21615 0.207335 7.51445 1.32294 10.5217C2.53555 13.8685 6.02786 15.7602 9.42317 15.0811L10.7328 7.61146L13.9341 5.8168L12.576 13.5775C14.8072 11.6858 15.7772 8.53304 14.7101 5.67129C14.5646 5.28325 14.4191 4.94372 14.2251 4.60419L10.9268 6.44736L11.1693 5.13774L13.6916 3.73111C12.1394 1.69393 9.61718 0.626831 7.09496 0.966361Z" fill="white"/>
</svg>
