<svg width="73" height="18" viewBox="0 0 73 18" fill="none" xmlns="http://www.w3.org/2000/svg">
<path d="M6.81531 0.363483C7.04249 0.227177 7.26966 0.0908708 7.49684 0C7.58771 0.227177 7.72402 0.454354 7.81489 0.681531C7.3151 0.954143 6.81531 1.18132 6.36096 1.49937C5.08876 2.27177 3.90744 3.18048 2.90787 4.31636C2.13546 5.22507 1.49937 6.31552 1.36306 7.54228C1.31763 8.26924 1.45393 9.04165 1.90829 9.63231C2.31721 10.1321 2.9533 10.4956 3.5894 10.5864C4.31636 10.7228 5.08877 10.6319 5.7703 10.4501C7.17879 10.0867 8.45098 9.40513 9.67774 8.67816C10.4047 8.22381 11.1317 7.76945 11.7223 7.13336C11.9495 6.86075 12.1313 6.5427 12.1313 6.17921C12.1313 5.9066 11.9495 5.63399 11.7223 5.54312C11.4952 5.40681 11.1771 5.36138 10.9045 5.40681C10.541 5.49768 10.1775 5.67943 9.81405 5.86117C8.76903 6.40639 7.86032 7.13336 6.81531 7.67858C6.17921 7.99663 5.49768 8.31468 4.77072 8.31468C4.31636 8.31468 3.86201 8.13294 3.5894 7.76945C3.36222 7.49684 3.27135 7.17879 3.31678 6.81531C3.36222 6.27008 3.5894 5.72486 3.90744 5.31594C4.4981 4.49811 5.31594 3.90744 6.17921 3.40766C7.63315 2.45351 9.22339 1.68111 10.9045 1.22676C11.8132 0.999579 12.7219 0.863273 13.6306 0.908708C14.9482 0.954143 16.2659 1.36306 17.3563 2.13546C18.6285 3.04417 19.5827 4.4981 19.6735 6.08834C19.8098 7.40597 19.4009 8.7236 18.8103 9.90492C18.3559 10.8136 17.7198 11.6315 17.0383 12.3584C16.493 12.9491 15.9024 13.4943 15.3117 13.9941C14.5393 14.6756 13.6761 15.2663 12.8128 15.8115C11.9495 16.3567 10.9954 16.8111 10.0412 17.22C9.76861 17.3563 9.45056 17.4926 9.17795 17.5835C8.99621 16.7657 8.7236 15.9478 8.54186 15.13C9.31426 14.7665 10.0867 14.4485 10.8591 14.0395C11.7223 13.5852 12.5402 12.9945 13.3126 12.4039C13.9941 11.8586 14.6302 11.3134 15.2209 10.6773C16.2204 9.6323 17.0383 8.26924 17.22 6.81531C17.2655 6.27008 17.2654 5.7703 17.1291 5.22507C16.8111 4.13462 16.0387 3.18048 14.9937 2.63525C14.1304 2.1809 13.1308 1.99916 12.1767 2.09003C10.7682 2.1809 9.45056 2.72612 8.22381 3.36222C7.63315 3.68027 7.08792 3.99832 6.5427 4.3618C5.99747 4.67985 5.49768 5.04333 5.08877 5.54312C4.90702 5.7703 4.77072 6.04291 4.77072 6.31552C4.77072 6.49726 4.90702 6.72444 5.08877 6.76987C5.40681 6.90618 5.7703 6.76987 6.08834 6.63357C7.58771 5.9066 8.8599 4.77072 10.4501 4.22549C11.2225 3.95288 12.1313 3.90744 12.9037 4.22549C13.5397 4.4981 14.0395 5.08877 14.1758 5.7703C14.2213 6.17921 14.2213 6.58813 14.085 6.95162C13.8578 7.54228 13.4943 8.04207 13.04 8.49642C12.4947 9.04165 11.8586 9.496 11.2225 9.90492C10.3138 10.4047 9.45056 10.9954 8.49642 11.4043C7.67858 11.7678 6.76987 12.0858 5.9066 12.313C4.90702 12.5856 3.86201 12.631 2.86243 12.4039C1.86285 12.1767 1.04501 11.6315 0.59066 10.8591C0.181742 10.223 0 9.45056 0 8.7236C0.0454354 7.86032 0.227177 6.99705 0.59066 6.22465C1.22676 4.90702 2.1809 3.7257 3.31678 2.77156C4.40723 1.81742 5.58855 0.999579 6.86075 0.318048L6.81531 0.363483Z" fill="white"/>
<path d="M24.2625 6.49744C24.8076 6.17945 25.4434 6.17957 26.0339 6.3158C26.3519 6.36122 26.6251 6.58769 26.8523 6.81482C26.6706 6.99656 26.4887 7.17898 26.2615 7.36072C25.898 6.86095 25.1255 6.76929 24.6257 7.08728C24.3077 7.31446 24.2169 7.81513 24.4441 8.13318C24.6712 8.40557 25.0349 8.49598 25.3982 8.6322C25.8071 8.72307 26.2618 8.85955 26.5798 9.22302C26.8979 9.54107 26.9427 9.99575 26.8972 10.4047C26.8517 10.8589 26.5794 11.2673 26.1707 11.4945C25.7618 11.7216 25.3076 11.8133 24.8533 11.7679C24.3081 11.7225 23.7631 11.4947 23.4451 11.0404C23.6267 10.8588 23.8533 10.6766 24.0349 10.5404C24.4438 11.1311 25.353 11.3131 25.8982 10.8588C26.2162 10.6316 26.3065 10.1319 26.0339 9.81384C25.7613 9.54143 25.3524 9.45058 24.989 9.35974C24.5803 9.22347 24.1717 9.04138 23.8992 8.6781C23.672 8.40554 23.6267 7.99661 23.6267 7.63318C23.6721 7.17882 23.9449 6.81543 24.3083 6.58826L24.2625 6.49744ZM47.116 6.49744C47.7066 6.1794 48.434 6.13362 49.0701 6.2699C49.5698 6.36076 50.0245 6.54224 50.3425 6.90564C50.1608 7.08738 50.0243 7.2698 49.8425 7.45154C49.1156 6.77001 47.8429 6.67867 47.116 7.40564C46.3438 8.08719 46.2535 9.35935 46.7986 10.1771C47.1166 10.6315 47.5708 10.9495 48.116 11.0404C48.661 11.0858 49.2062 11.0408 49.7058 10.8138V9.35974H48.5701V8.6781H50.4333V11.1771C50.4332 11.2678 50.3425 11.3134 50.2517 11.3588C49.5702 11.6768 48.8429 11.7675 48.116 11.722C47.3436 11.6766 46.6167 11.2673 46.2078 10.6312C45.7536 9.99517 45.6174 9.17741 45.7537 8.45056C45.89 7.63284 46.3896 6.9058 47.1619 6.54236L47.116 6.49744ZM40.3015 6.3158C41.0284 8.04212 41.8002 9.76865 42.5271 11.5404C42.2546 11.5404 41.9822 11.5858 41.7097 11.5404C41.528 11.1315 41.3465 10.6769 41.1648 10.2679H38.7107C38.529 10.6769 38.3924 11.1315 38.2107 11.5404H37.3933C38.1202 9.81402 38.9379 8.04218 39.6648 6.3158H40.3015ZM56.7937 6.3158C57.5206 8.04224 58.2933 9.76853 59.0203 11.5404C58.7478 11.5404 58.4753 11.5858 58.2029 11.5404C57.9757 11.1315 57.8387 10.6769 57.657 10.2679H55.2039C55.0221 10.6769 54.8856 11.1315 54.7039 11.5404C54.4314 11.5858 54.1589 11.5404 53.8865 11.5404C54.6588 9.81396 55.4315 8.04224 56.2039 6.3158H56.7937ZM34.0769 6.99646H31.3962V8.54138H33.8494V9.22302H31.3962C31.3962 9.76822 31.3508 10.3136 31.3962 10.8588C31.5778 10.904 31.8045 10.8588 31.9861 10.8588H34.1677V11.5404H30.6687V6.3158H34.0769V6.99646ZM65.2908 6.99646H63.6091V11.5404H62.8826V6.99646H61.2019V6.3158H65.2908V6.99646ZM72.197 6.99646H69.5613V8.54138H72.0603V9.22302H69.5613V10.8588H72.3328V11.5404H68.8347V6.3158H72.197V6.99646ZM39.9861 7.2699C39.6226 8.04226 39.3041 8.85985 38.9861 9.6322H40.9402C40.6222 8.8599 40.3041 8.04221 39.9861 7.2699ZM56.4792 7.2699C56.1158 8.04226 55.7973 8.85984 55.4792 9.6322H57.4333C57.1153 8.8599 56.7973 8.04221 56.4792 7.2699ZM17.2654 5.8158C17.3108 6.08826 17.3108 6.36071 17.2654 6.63318V5.8158Z" fill="white"/>
</svg>
