<svg width="73" height="14" viewBox="0 0 73 14" fill="none" xmlns="http://www.w3.org/2000/svg">
<path fill-rule="evenodd" clip-rule="evenodd" d="M68.0639 2.49568C69.3633 2.49568 70.7245 2.78443 71.6733 3.15569V0.618762C70.7039 0.309381 69.3633 0 67.6101 0C64.2894 0 62.0412 1.23752 62.0412 3.8157C62.0412 8.27079 68.4558 7.36327 68.4558 9.42582C68.4558 10.2302 67.6926 10.684 66.187 10.684C64.8257 10.684 63.2375 10.6427 62 10.0652V12.5815C63.2375 13.0146 65.0319 13.2003 66.3932 13.2003C69.8377 13.2003 72.3333 12.169 72.3333 8.99268C72.3333 4.74385 65.8776 5.98137 65.8776 3.46507C65.857 2.5163 66.8882 2.49568 68.0639 2.49568ZM54.513 9.75582H53.358V13.2003H49.336V0C49.4185 0 52.5329 0.0618762 53.9355 0C58.0812 0.0618762 60.845 1.3819 60.845 4.59947C60.845 8.35329 58.143 9.75582 54.513 9.75582ZM53.9561 2.28942C53.7498 2.28942 53.6055 2.28942 53.3786 2.28942V7.44577H53.9561C55.9774 7.44577 56.823 6.82701 56.823 4.57884C56.823 3.19694 55.8743 2.31005 53.9561 2.28942ZM43.0452 0H47.0672V13.2003H43.0452V0ZM33.2894 13.2003V0H37.3114V10.3333H41.3333L40.7558 13.2003H33.2894ZM26.978 0H31V13.2003H26.978V0ZM20.6667 8.04391H16.6447V13.2003H12.6228V0H16.6447V5.15635H20.6667V0H24.6886V13.2003H20.6667V8.04391ZM5.15635 9.75582H4.00133V13.2003H0V0C0.0825017 0 3.19694 0.0618762 4.59947 0C8.74518 0.0618762 11.4884 1.3819 11.4884 4.59947C11.4884 8.35329 8.78643 9.75582 5.15635 9.75582ZM4.59947 2.28942C4.39321 2.28942 4.24884 2.28942 4.02196 2.28942V7.44577H4.59947C6.62076 7.44577 7.4664 6.82701 7.4664 4.57884C7.4664 3.19694 6.51763 2.31005 4.59947 2.28942Z" fill="white"/>
</svg>
