<svg width="73" height="18" viewBox="0 0 73 18" fill="none" xmlns="http://www.w3.org/2000/svg">
<path d="M17.0181 16.1032H12.9661L11.7636 13.1492H5.07144L3.94736 16.1032H0L6.01253 1.15027H10.3259L17.0181 16.1032ZM8.26069 4.7055L6.03867 10.535H10.6396L8.26069 4.7055Z" fill="white"/>
<path d="M31.5527 1.15027H34.7943V16.1032H31.056V6.79682L27.0303 11.4761H26.4551L22.4294 6.77068V16.077H18.7173V1.15027H21.9588L26.7688 6.71839L31.5527 1.15027Z" fill="white"/>
<path d="M44.2314 1.15027C49.695 1.15027 52.5183 4.54865 52.5183 8.65286C52.5183 12.9401 49.7996 16.1032 43.8393 16.1032H37.6438V1.15027H44.2314ZM41.382 13.3583H43.8132C47.5514 13.3583 48.6755 10.8226 48.6755 8.62672C48.6755 6.03872 47.29 3.89512 43.7609 3.89512H41.382V13.3583Z" fill="white"/>
<path d="M67.6279 4.70546H59.9162L55.2107 0H72.3333V17.0965L67.6279 12.4172V4.70546Z" fill="white"/>
<path d="M59.916 12.4171V5.64648L55.0798 10.4826V17.2533H61.8505L66.6866 12.4171H59.916Z" fill="white"/>
</svg>
