<svg width="73" height="37" viewBox="0 0 73 37" fill="none" xmlns="http://www.w3.org/2000/svg">
<path d="M4.444 17.5619C4.64653 17.1568 5.05158 16.8964 5.50003 16.8964H6.57052C7.01896 16.8964 7.42401 17.1568 7.62654 17.5619L12.0098 26.5164C12.0966 26.6755 12.0821 26.8636 11.9808 27.0082C11.8796 27.1529 11.7204 27.2397 11.5468 27.2397H10.404C10.1147 27.2397 9.83985 27.0661 9.70965 26.8057L6.57052 20.3683C6.46925 20.1658 6.26673 20.0356 6.03527 20.0356C5.81828 20.0356 5.60129 20.1658 5.50003 20.3683L2.34642 26.8057C2.21622 27.0661 1.94137 27.2397 1.65205 27.2397H0.509226C0.335633 27.2397 0.16204 27.1529 0.0752437 27.0082C-0.0115528 26.8636 -0.0260188 26.6755 0.0463116 26.5164L4.444 17.5619Z" fill="white"/>
<path d="M17.4345 16.8964C15.6407 16.8964 14.1362 18.372 14.1362 20.1802V23.9559C14.1362 25.7641 15.6262 27.2397 17.4345 27.2397H24.5952C24.7254 27.2397 24.8556 27.1818 24.9569 27.095C25.0581 26.9937 25.1015 26.8636 25.1015 26.7334V25.5616C25.1015 25.2868 24.8701 25.0408 24.5952 25.0553H17.2754C16.7691 25.0553 16.3351 24.6213 16.3351 24.115V23.5798C16.3351 23.3628 16.5231 23.1747 16.7401 23.1747H24.6097C24.7399 23.1747 24.8701 23.1168 24.9713 23.03C25.0726 22.9288 25.116 22.7986 25.116 22.6684V21.4822C25.116 21.2073 24.8845 20.9614 24.6097 20.9759H16.7401C16.6389 20.9759 16.5376 20.9325 16.4653 20.8601C16.3929 20.7878 16.3495 20.6865 16.3495 20.5853V20.0356C16.3495 19.5292 16.7835 19.0953 17.2898 19.0953H24.6241C24.899 19.0953 25.1449 18.8638 25.1305 18.589V17.4172C25.1305 17.1423 24.899 16.8964 24.6241 16.9109H17.4345V16.8964Z" fill="white"/>
<path d="M28.0238 26.7189C28.0238 26.8491 28.0817 26.9793 28.1685 27.0806C28.2697 27.1818 28.3999 27.2252 28.5301 27.2252H29.7019C29.8321 27.2252 29.9623 27.1674 30.0635 27.0806C30.1648 26.9793 30.2082 26.8491 30.2082 26.7189V23.5653C30.2082 23.4641 30.2516 23.3628 30.3239 23.2905C30.3962 23.2181 30.4975 23.1747 30.5988 23.1747H35.5172C35.7342 23.1892 35.9512 23.3194 36.0669 23.5075L37.6727 26.8057C37.7739 27.0082 37.9765 27.1529 38.1935 27.2108C38.2803 27.2542 39.4086 27.2252 39.5243 27.2397C39.9728 27.2397 40.1753 26.907 39.9728 26.5164L38.3815 23.2471C38.2803 23.0445 38.3815 22.7986 38.5696 22.7118L38.7866 22.5672L38.9746 22.4225C39.8281 21.6992 40.2621 20.4985 40.0017 19.3991C39.6835 17.938 38.2513 16.8964 36.7758 16.9109H28.776C28.5735 16.9109 28.371 16.9977 28.2263 17.1424C28.0817 17.287 27.9949 17.4896 27.9949 17.6921V19.1098H36.9349C37.4412 19.1098 37.8752 19.5437 37.8752 20.0501C37.8752 20.5564 37.4412 20.9904 36.9349 20.9904H27.9949L28.0238 26.7189Z" fill="white"/>
<path d="M54.9884 20.8023C54.9884 19.7752 54.5833 18.777 53.8456 18.0392C53.1078 17.3015 52.1241 16.8964 51.0826 16.8964H46.0628C45.0357 16.8964 44.0376 17.3015 43.2998 18.0392C42.562 18.777 42.157 19.7607 42.157 20.8023V23.3338C42.157 24.3609 42.562 25.3591 43.2998 26.0969C44.0376 26.8346 45.0213 27.2397 46.0628 27.2397H51.097C52.1241 27.2397 53.1223 26.8346 53.86 26.0969C54.5978 25.3591 55.0029 24.3754 55.0029 23.3338L54.9884 20.8023ZM52.804 23.3338C52.804 24.2741 52.0373 25.0408 51.097 25.0408H46.0628C45.1225 25.0408 44.3558 24.2741 44.3558 23.3338V20.8023C44.3558 19.862 45.1225 19.0953 46.0628 19.0953H51.097C52.0373 19.0953 52.804 19.862 52.804 20.8023V23.3338Z" fill="white"/>
<path d="M45.846 31.999C45.846 31.3191 45.5712 30.6536 45.0938 30.1762C44.6164 29.6989 43.951 29.424 43.2711 29.424H39.9439C39.264 29.424 38.5985 29.6989 38.1211 30.1762C37.6438 30.6536 37.3689 31.3191 37.3689 31.999V33.677C37.3689 34.3569 37.6438 35.0224 38.1211 35.4998C38.5985 35.9771 39.264 36.252 39.9439 36.252H43.2711C43.951 36.252 44.6164 35.9771 45.0938 35.4998C45.5712 35.0224 45.846 34.3569 45.846 33.677V31.999ZM44.3994 33.6626C44.3994 34.2846 43.8931 34.7909 43.2711 34.7909H39.9439C39.3218 34.7909 38.8155 34.2846 38.8155 33.6626V31.9845C38.8155 31.3625 39.3218 30.8562 39.9439 30.8562H43.2711C43.8931 30.8562 44.3994 31.3625 44.3994 31.9845V33.6626Z" fill="white"/>
<path d="M55.6973 31.999C55.6973 31.3191 55.4225 30.6536 54.9451 30.1762C54.4677 29.6989 53.8023 29.424 53.1224 29.424H49.7952C49.1153 29.424 48.4498 29.6989 47.9725 30.1762C47.4951 30.6536 47.2202 31.3191 47.2202 31.999V33.677C47.2202 34.3569 47.4951 35.0224 47.9725 35.4998C48.4498 35.9771 49.1153 36.252 49.7952 36.252H53.1224C53.8023 36.252 54.4677 35.9771 54.9451 35.4998C55.4225 35.0224 55.6973 34.3569 55.6973 33.677V31.999ZM54.2363 33.6626C54.2363 34.2846 53.73 34.7909 53.1079 34.7909H49.7807C49.1587 34.7909 48.6524 34.2846 48.6524 33.6626V31.9845C48.6524 31.3625 49.1587 30.8562 49.7807 30.8562H53.1079C53.73 30.8562 54.2363 31.3625 54.2363 31.9845V33.6626Z" fill="white"/>
<path d="M64.9411 34.8922C64.8833 34.8343 64.7965 34.7909 64.6952 34.7909H59.6321C59.01 34.7909 58.5037 34.2846 58.5037 33.6626V29.7567C58.5037 29.5687 58.3446 29.4095 58.171 29.424H57.4043C57.3175 29.424 57.2307 29.4529 57.1584 29.5253C57.0861 29.5976 57.0571 29.6699 57.0571 29.7712V33.677C57.0571 34.3569 57.332 35.0224 57.8094 35.4998C58.2867 35.9771 58.9522 36.252 59.6321 36.252H64.6952C64.8833 36.252 65.0424 36.0929 65.0279 35.9193V35.1526C65.0279 35.0369 64.999 34.9501 64.9411 34.8922Z" fill="white"/>
<path d="M28.0237 31.999V33.677V33.8651C28.1249 35.196 29.2533 36.252 30.5986 36.252H35.6618C35.8498 36.252 36.009 36.0929 35.9945 35.9193V35.1526C35.9945 34.9645 35.8354 34.8054 35.6618 34.8199H30.5986C30.0345 34.8199 29.5426 34.3714 29.4848 33.8217V33.6915V32.0134C29.4848 31.4059 30.0055 30.8851 30.6131 30.8851H35.6762C35.8643 30.8851 36.0234 30.726 36.009 30.5524V29.7857C36.009 29.5976 35.8498 29.4385 35.6762 29.4529H30.6131C29.1954 29.424 28.0237 30.5813 28.0237 31.999Z" fill="white"/>
<path d="M66.7063 27.2396H57.7083C57.3467 27.2396 57.0574 26.9503 57.0574 26.5887V17.5908L66.7063 27.2396Z" fill="white"/>
<path d="M72.3334 16.9253L66.0695 23.1891C65.7657 23.4929 65.2739 23.4929 64.9701 23.1891L58.7063 16.9253H72.3334Z" fill="white"/>
<path d="M69.0207 5.64178V14.5095C69.0207 14.9435 68.6735 15.2907 68.2395 15.2907H59.3718L69.0207 5.64178Z" fill="white"/>
<path d="M58.7063 0L64.9701 6.26381C65.2739 6.5676 65.2739 7.05945 64.9701 7.36324L58.7063 13.627V0Z" fill="white"/>
<path d="M47.4229 3.31274H56.2906C56.7245 3.31274 57.0717 3.65993 57.0717 4.09391V12.9472L47.4229 3.31274Z" fill="white"/>
</svg>
