<svg width="30" height="30" viewBox="0 0 30 30" fill="none" xmlns="http://www.w3.org/2000/svg">
<path d="M28.2 9.4212C20.5512 1.78245 9.44875 1.78245 1.8 9.4212C1.0675 10.1525 1.06625 11.34 1.79875 12.0737C2.53125 12.8075 3.7175 12.8075 4.45125 12.075C10.565 5.9687 19.4375 5.9687 25.5513 12.075C25.9175 12.44 27.0362 13.0987 28.2038 12.0737C28.9825 11.39 28.9338 10.1537 28.2025 9.4212H28.2Z" fill="#8F939F"/>
<path d="M6.55 15.4763C5.8175 16.2076 5.81625 17.3951 6.54875 18.1288C7.28125 18.8626 8.4675 18.8626 9.20125 18.1301C12.7238 14.6113 17.2788 14.6113 20.8013 18.1301C21.1675 18.4951 22.355 19.1526 23.4538 18.1288C24.2113 17.4226 24.1838 16.2088 23.4525 15.4763C18.4775 10.5076 11.5275 10.5076 6.55125 15.4763H6.55Z" fill="#8F939F"/>
<path d="M15 18.9951C12.71 18.9951 11.3438 20.3564 11.3438 22.6389C11.3438 24.9214 12.71 26.2814 15 26.2814C17.29 26.2814 18.6563 24.9201 18.6563 22.6389C18.6563 20.3576 17.29 18.9951 15 18.9951Z" fill="#8F939F"/>
</svg>
