<svg width="15" height="15" viewBox="0 0 15 15" fill="none" xmlns="http://www.w3.org/2000/svg">
<g clip-path="url(#clip0_710_1430)">
<path d="M15 1.875H2.65125L2.625 1.65562C2.57128 1.19964 2.35212 0.779208 2.00906 0.474049C1.666 0.16889 1.22289 0.000213621 0.76375 0L0 0V1.25H0.76375C0.916833 1.25002 1.06459 1.30622 1.17898 1.40795C1.29338 1.50967 1.36646 1.64984 1.38437 1.80187L2.375 10.2194C2.42872 10.6754 2.64788 11.0958 2.99094 11.401C3.334 11.7061 3.77711 11.8748 4.23625 11.875H12.5V10.625H4.23625C4.08307 10.625 3.93524 10.5687 3.82083 10.4668C3.70642 10.365 3.63339 10.2246 3.61562 10.0725L3.53375 9.375H13.6475L15 1.875ZM12.6025 8.125H3.38688L2.79875 3.125H13.5044L12.6025 8.125Z" fill="white"/>
<path d="M4.37512 15.0004C5.06547 15.0004 5.62512 14.4407 5.62512 13.7504C5.62512 13.06 5.06547 12.5004 4.37512 12.5004C3.68477 12.5004 3.12512 13.06 3.12512 13.7504C3.12512 14.4407 3.68477 15.0004 4.37512 15.0004Z" fill="white"/>
<path d="M10.625 15.0004C11.3154 15.0004 11.875 14.4407 11.875 13.7504C11.875 13.06 11.3154 12.5004 10.625 12.5004C9.93464 12.5004 9.375 13.06 9.375 13.7504C9.375 14.4407 9.93464 15.0004 10.625 15.0004Z" fill="white"/>
</g>
<defs>
<clipPath id="clip0_710_1430">
<rect width="15" height="15" fill="white"/>
</clipPath>
</defs>
</svg>
