<svg width="30" height="30" viewBox="0 0 30 30" fill="none" xmlns="http://www.w3.org/2000/svg">
<path d="M23.75 0H18.75C15.3038 0 12.5 2.80375 12.5 6.25V23.75C12.5 27.1963 15.3038 30 18.75 30H23.75C27.1963 30 30 27.1963 30 23.75V6.25C30 2.80375 27.1963 0 23.75 0ZM21.25 6.25C22.6313 6.25 23.75 7.36875 23.75 8.75C23.75 10.1313 22.6313 11.25 21.25 11.25C19.8687 11.25 18.75 10.1313 18.75 8.75C18.75 7.36875 19.8687 6.25 21.25 6.25ZM21.25 25C18.4925 25 16.25 22.7575 16.25 20C16.25 17.2425 18.4925 15 21.25 15C24.0075 15 26.25 17.2425 26.25 20C26.25 22.7575 24.0075 25 21.25 25ZM10 17.8463V22.1525C9.63125 22.3675 9.2075 22.4988 8.75 22.4988C7.36875 22.4988 6.25 21.38 6.25 19.9987C6.25 18.6175 7.36875 17.4987 8.75 17.4987C9.2075 17.4987 9.63125 17.6313 10 17.845V17.8463ZM12.51 29.8713C12.1025 29.955 11.6812 29.9988 11.25 29.9988H6.25C2.80375 29.9988 0 27.195 0 23.7488V6.25C0 2.80375 2.80375 0 6.25 0H11.25C11.6812 0 12.1025 0.04375 12.51 0.1275C10.96 1.7075 10 3.8675 10 6.25V6.59625C9.63125 6.38125 9.2075 6.25 8.75 6.25C7.36875 6.25 6.25 7.36875 6.25 8.75C6.25 10.1313 7.36875 11.25 8.75 11.25C9.2075 11.25 9.63125 11.1175 10 10.9037V15.1775C9.5975 15.0725 9.18375 15 8.75 15C5.9925 15 3.75 17.2425 3.75 20C3.75 22.7575 5.9925 25 8.75 25C9.21 25 9.64625 24.9175 10.0688 24.8013C10.305 26.765 11.1912 28.53 12.5087 29.8725L12.51 29.8713ZM18.75 19.9987C18.75 18.6175 19.8687 17.4987 21.25 17.4987C22.6313 17.4987 23.75 18.6175 23.75 19.9987C23.75 21.38 22.6313 22.4988 21.25 22.4988C19.8687 22.4988 18.75 21.38 18.75 19.9987Z" fill="#8F939F"/>
</svg>
