<svg width="30" height="30" viewBox="0 0 30 30" fill="none" xmlns="http://www.w3.org/2000/svg">
<path fill-rule="evenodd" clip-rule="evenodd" d="M15.0704 0C17.2089 8.30889e-05 18.4576 1.11602 18.753 3.44238C19.2893 3.69736 19.8244 4.00729 20.3702 4.38086C22.3563 2.73908 24.0469 2.73042 25.6573 4.34082C27.2691 5.9527 27.2626 7.64142 25.6221 9.62695C25.9991 10.1737 26.3106 10.7099 26.5665 11.2471C28.8862 11.5457 30.009 12.7536 29.9981 14.9287H30.0001C29.9892 17.1093 28.8441 18.3274 26.504 18.6396C26.2454 19.1727 25.9283 19.7154 25.5567 20.2607C27.1617 22.2162 27.1584 23.9524 25.5548 25.5547C23.9267 27.1813 22.235 27.1868 20.2598 25.5547C19.7167 25.9229 19.1733 26.2393 18.6397 26.4971C18.3266 28.8424 17.0823 29.9999 14.8975 30C12.7617 30 11.5403 28.8726 11.2462 26.5586C10.7098 26.3036 10.1748 25.9937 9.62898 25.6201C7.64279 27.2634 5.9537 27.2711 4.34187 25.6592C2.73006 24.0473 2.73662 22.3596 4.37703 20.374C3.99994 19.8272 3.68765 19.2912 3.43172 18.7539C1.11237 18.4552 -0.010693 17.247 7.67112e-05 15.0723C0.0109674 12.8917 1.15603 11.6736 3.49617 11.3613C3.75478 10.8282 4.07188 10.2856 4.44344 9.74023C2.83842 7.7847 2.84173 6.04862 4.44539 4.44629C6.07351 2.81816 7.76506 2.814 9.74031 4.44629C10.2834 4.07812 10.8268 3.76163 11.3604 3.50391C11.6735 1.15836 12.8895 0.0109095 15.0704 0ZM15.0782 1.36426C13.7346 1.3711 12.8631 1.81724 12.6739 4.01953C12.6534 4.26895 12.4968 4.48546 12.2696 4.58496C11.5645 4.89451 10.8351 5.32466 10.0987 5.86328C9.83598 6.05687 9.475 6.03574 9.23543 5.81348C7.20595 3.93875 6.23221 4.58757 5.4073 5.41113C4.58645 6.23204 3.93984 7.20479 5.80867 9.23242C6.03057 9.47243 6.05081 9.83544 5.8575 10.0986C5.31579 10.839 4.88426 11.5703 4.57527 12.2725C4.4745 12.5 4.2584 12.6539 4.01082 12.6758C1.81511 12.8653 1.36826 13.7354 1.3614 15.0771C1.3546 16.4054 1.78495 17.2637 3.94539 17.4355C4.19719 17.456 4.41634 17.6139 4.5157 17.8457C4.8165 18.5451 5.2467 19.2731 5.79109 20.0107C5.98576 20.2739 5.96514 20.6385 5.74324 20.8799C3.86074 22.9226 4.49382 23.8843 5.30379 24.6943C6.11514 25.5057 7.07903 26.1379 9.12508 24.252C9.25431 24.1321 9.41909 24.0723 9.58504 24.0723C9.72519 24.0723 9.86723 24.1155 9.98836 24.2041C10.733 24.7537 11.4412 25.1689 12.1505 25.4717C12.383 25.5713 12.5412 25.7924 12.5616 26.0459C12.7318 28.222 13.5498 28.5999 14.922 28.6367C16.2655 28.6299 17.137 28.1837 17.3262 25.9814C17.3467 25.7319 17.5032 25.5146 17.7305 25.415C18.4356 25.1055 19.1651 24.6762 19.9014 24.1377C20.1655 23.9468 20.5265 23.9657 20.7647 24.1865C22.7945 26.0589 23.7352 25.4453 24.5928 24.5889C25.4136 23.768 26.0604 22.7952 24.1915 20.7676C23.9697 20.5277 23.9487 20.1655 24.1417 19.9023C24.6835 19.1619 25.1159 18.4308 25.4249 17.7285C25.5256 17.501 25.7428 17.3472 25.9903 17.3252C28.1861 17.1356 28.6329 16.2647 28.6397 14.9229C28.6464 13.5949 28.216 12.7372 26.0557 12.5654C25.8041 12.5448 25.5848 12.3869 25.4854 12.1553C25.1846 11.4557 24.7546 10.727 24.21 9.98926C24.0155 9.72613 24.0362 9.36241 24.2579 9.12109C26.1406 7.07829 25.5073 6.11667 24.6973 5.30664C23.8874 4.49664 22.9234 3.86352 20.8761 5.74805C20.6351 5.96896 20.2745 5.98954 20.0118 5.7959C19.2672 5.24637 18.5589 4.83202 17.8497 4.5293C17.617 4.4297 17.459 4.20864 17.4386 3.95508C17.267 1.77869 16.4259 1.32744 15.0782 1.36426ZM14.9971 10.4902C15.9912 10.4899 16.9856 10.9939 17.9932 12.002C18.6494 12.6578 19.5205 13.6795 19.5206 14.9844C19.5206 15.9826 19.021 16.9692 17.9932 17.9961C16.9859 19.0024 15.9918 19.5068 14.9981 19.5068L14.9971 19.5059V19.5068C14.0034 19.5068 13.0094 19.0038 12.002 17.9961C11.3459 17.3402 10.4748 16.3185 10.4747 15.0137C10.4747 14.0155 10.9742 13.0288 12.002 12.002C13.0094 10.9942 14.0034 10.4902 14.9971 10.4902ZM15.0206 11.8428C14.4136 11.843 13.7573 12.1754 12.9639 12.9688C12.2057 13.727 11.837 14.3955 11.837 15.0146C11.837 15.6214 12.195 16.2623 12.9639 17.0312C13.6479 17.715 14.2726 18.1522 14.963 18.1572C15.5722 18.1613 16.2332 17.8288 17.0313 17.0312C17.7892 16.2733 18.1591 15.6053 18.1593 14.9863C18.1593 14.3795 17.8015 13.7379 17.0323 12.9688C16.3437 12.2817 15.716 11.8429 15.0206 11.8428Z" fill="white"/>
</svg>
