<svg width="30" height="30" viewBox="0 0 30 30" fill="none" xmlns="http://www.w3.org/2000/svg">
<path d="M28.3797 16.664C25.8615 16.1022 24.0479 16.6381 22.9043 17.2598L20.9648 16.1213C21.0312 15.7791 21.0728 15.4055 21.0728 15.0087C21.0728 14.6051 21.0298 14.2274 20.9606 13.8825L22.9043 12.7412C23.7101 13.1789 24.8453 13.573 26.3252 13.573C26.9482 13.573 27.6321 13.5034 28.3783 13.3371C29.497 13.0876 30.1989 11.9927 29.9455 10.891C29.6922 9.78794 28.5749 9.09529 27.4619 9.34754C26.1799 9.6325 25.3658 9.39662 24.9478 9.18937C24.9602 8.69443 25.1471 7.85589 26.0359 6.86055C26.7918 6.01111 26.7073 4.71989 25.8449 3.97407C24.9837 3.22961 23.6713 3.31278 22.914 4.16223C21.1987 6.0861 20.8 7.92679 20.7959 9.21664L18.4493 10.5938L17.0759 9.72113V7.05417C18.1945 6.39151 19.5817 5.11121 20.3722 2.66922C20.7211 1.59344 20.1175 0.442661 19.0252 0.0990646C17.9343 -0.248622 16.7644 0.348581 16.4156 1.42573C16.0113 2.67331 15.3994 3.25688 15.0048 3.5173C14.5909 3.25143 13.9831 2.66649 13.5817 1.42573C13.2328 0.348581 12.0588 -0.248622 10.972 0.0990646C9.87972 0.441298 9.27612 1.59344 9.62499 2.66922C10.4169 5.11121 11.8041 6.39151 12.9213 7.05417V9.72113L11.5479 10.5938L9.20136 9.21664C9.19859 7.92679 8.79849 6.0861 7.08319 4.16223C6.32592 3.31278 5.01487 3.22825 4.15238 3.97407C3.28988 4.71853 3.20405 6.01111 3.96133 6.86055C4.85428 7.86271 5.03841 8.70397 5.0564 9.17846C4.62446 9.40207 3.81596 9.63387 2.53538 9.3489C1.41953 9.09665 0.305075 9.7893 0.0517264 10.8924C-0.201622 11.994 0.500279 13.0889 1.61889 13.3384C2.36509 13.5048 3.049 13.5743 3.67198 13.5743C5.15193 13.5743 6.28854 13.1789 7.09289 12.7426L9.038 13.8838C8.96877 14.2288 8.92586 14.6065 8.92586 15.0087C8.92586 15.4055 8.96877 15.7791 9.03523 16.1213L7.09565 17.2598C5.95212 16.6381 4.13992 16.1036 1.62027 16.664C0.501663 16.9135 -0.200238 18.0083 0.0531109 19.11C0.30646 20.2117 1.41953 20.9016 2.53676 20.6535C3.8215 20.3699 4.63416 20.6044 5.05087 20.8117C5.03841 21.3066 4.85151 22.1451 3.96271 23.1405C3.20682 23.9899 3.29127 25.2811 4.15376 26.027C4.54832 26.3678 5.03564 26.5355 5.52295 26.5355C6.10026 26.5355 6.67479 26.2997 7.08458 25.8388C8.79988 23.9149 9.19859 22.0742 9.20274 20.7844L11.5244 19.4223L12.9227 20.2949V22.9469C11.8041 23.6095 10.4169 24.8898 9.62637 27.3318C9.2775 28.4076 9.88111 29.5584 10.9734 29.902C12.063 30.2469 13.2342 29.6524 13.583 28.5753C13.9873 27.3277 14.5992 26.7441 14.9938 26.4837C15.4077 26.7496 16.0155 27.3345 16.417 28.5753C16.6994 29.4452 17.5148 29.9988 18.3953 29.9988C18.6043 29.9988 18.8175 29.9674 19.028 29.9006C20.1203 29.5584 20.7239 28.4062 20.375 27.3304C19.5831 24.8885 18.1959 23.6081 17.0787 22.9455V20.2935L18.477 19.4209L20.7986 20.783C20.8014 22.0729 21.2015 23.9136 22.9168 25.8374C23.3266 26.2983 23.9011 26.5342 24.4784 26.5342C24.9657 26.5342 25.4531 26.3665 25.8476 26.0256C26.7101 25.2811 26.7959 23.9886 26.0387 23.1391C25.1457 22.137 24.9616 21.2957 24.9436 20.8212C25.3769 20.599 26.1868 20.3685 27.4646 20.6508C28.5777 20.9016 29.6949 20.209 29.9483 19.1073C30.2016 18.0056 29.4997 16.9107 28.3811 16.6612L28.3797 16.664Z" fill="#8F939F"/>
</svg>
