<svg width="25" height="25" viewBox="0 0 25 25" fill="none" xmlns="http://www.w3.org/2000/svg">
<g clip-path="url(#clip0_314_1558)">
<path d="M12.5 0C10.03 0 7.61001 0.74 5.56001 2.11C3.50001 3.48 1.90001 5.43 0.950005 7.72C5.42402e-06 10 -0.239995 12.52 0.240005 14.94C0.720005 17.36 1.91001 19.59 3.66001 21.34C5.41001 23.09 7.64001 24.28 10.06 24.76C12.48 25.24 15 24.99 17.28 24.05C19.56 23.1 21.52 21.5 22.89 19.45C24.26 17.39 25 14.98 25 12.51C25 9.19 23.68 6.02 21.34 3.67C18.99 1.32 15.82 0 12.5 0ZM16.46 11.02L16.21 13.2C16.2 13.3 16.15 13.39 16.08 13.46C16.01 13.53 15.91 13.57 15.81 13.57H13.54V20.03C13.53 20.11 13.5 20.18 13.45 20.24C13.4 20.3 13.32 20.33 13.25 20.33H10.95C10.95 20.33 10.87 20.33 10.84 20.31C10.8 20.3 10.77 20.27 10.75 20.25C10.72 20.22 10.7 20.19 10.69 20.15C10.68 20.11 10.67 20.08 10.67 20.04V13.59H8.97001C8.92001 13.59 8.86001 13.58 8.81001 13.56C8.76001 13.54 8.72001 13.51 8.68001 13.47C8.64001 13.43 8.61001 13.39 8.59001 13.34C8.57001 13.29 8.56001 13.24 8.56001 13.18V11C8.56001 10.95 8.56001 10.89 8.58001 10.84C8.60001 10.79 8.63001 10.74 8.67001 10.71C8.71001 10.68 8.75001 10.64 8.80001 10.62C8.85001 10.6 8.90001 10.59 8.96001 10.59H10.67V8.49C10.67 6.05 12.12 4.72 14.24 4.72H15.98C16.03 4.72 16.09 4.73 16.14 4.75C16.19 4.77 16.23 4.8 16.27 4.84C16.31 4.88 16.34 4.92 16.36 4.97C16.38 5.02 16.39 5.07 16.39 5.13V6.96C16.39 7.01 16.39 7.07 16.36 7.12C16.34 7.17 16.31 7.22 16.27 7.25C16.23 7.29 16.19 7.32 16.14 7.34C16.09 7.36 16.04 7.37 15.98 7.37H14.91C13.76 7.37 13.53 7.94 13.53 8.76V10.58H16.07C16.13 10.58 16.18 10.59 16.24 10.62C16.29 10.64 16.34 10.68 16.38 10.72C16.42 10.76 16.45 10.81 16.46 10.87C16.48 10.93 16.48 10.98 16.47 11.04L16.46 11.02Z" fill="white"/>
</g>
<defs>
<clipPath id="clip0_314_1558">
<rect width="25" height="25" fill="white"/>
</clipPath>
</defs>
</svg>
