<svg width="30" height="30" viewBox="0 0 30 30" fill="none" xmlns="http://www.w3.org/2000/svg">
<path d="M12.5482 9.315C11.9386 6.92455 12.3068 4.30364 13.9786 2.47773C15.8659 0.42 17.7532 0 19.8232 0C22.9745 0 24.5714 1.60636 24.5714 4.77273C24.5714 7.93909 22.9732 9.54545 19.8232 9.54545C19.3623 9.54545 18.6245 9.80591 17.9945 10.2764C17.175 9.81546 16.1823 9.55227 15.0177 9.54545C14.1695 9.55091 13.4086 9.67773 12.7445 9.91909C12.6436 9.62045 12.5632 9.37636 12.5482 9.315ZM20.0809 12.7459C20.3223 13.41 20.4505 14.1695 20.4545 15.0191C20.4477 16.1836 20.1845 17.1764 19.7236 17.9959C20.1941 18.6245 20.4545 19.3623 20.4545 19.8245C20.4545 22.9759 22.0609 24.5727 25.2273 24.5727C28.3936 24.5727 30 22.9745 30 19.8245C30 17.7545 29.58 15.8673 27.5223 13.98C25.6977 12.3068 23.0755 11.94 20.685 12.5495C20.6236 12.5645 20.3809 12.6464 20.0809 12.7459ZM17.2541 20.0809C16.59 20.3223 15.8305 20.4505 14.9809 20.4545C13.8164 20.4477 12.8236 20.1845 12.0041 19.7236C11.3755 20.1941 10.6377 20.4545 10.1755 20.4545C7.02409 20.4545 5.42727 22.0609 5.42727 25.2273C5.42727 28.3936 7.02545 30 10.1755 30C12.2455 30 14.1327 29.58 16.02 27.5223C17.6932 25.6977 18.06 23.0755 17.4505 20.685C17.4355 20.6236 17.3536 20.3809 17.2541 20.0809ZM9.91909 17.2541C9.67773 16.59 9.54955 15.8305 9.54545 14.9809C9.55227 13.8164 9.81546 12.8236 10.2764 12.0041C9.80591 11.3755 9.54545 10.6377 9.54545 10.1755C9.54545 7.02409 7.93909 5.42727 4.77273 5.42727C1.60636 5.42727 0 7.02545 0 10.1755C0 12.2455 0.42 14.1327 2.47773 16.02C4.30227 17.6932 6.92455 18.06 9.315 17.4505C9.37636 17.4355 9.61909 17.3536 9.91909 17.2541ZM17.7273 14.9877C17.6986 13.2982 16.68 12.2836 14.9959 12.2727C13.2955 12.2836 12.3041 13.2736 12.2727 14.9877V15.0123C12.3041 16.7523 13.2723 17.7164 15.0041 17.7273C16.7277 17.7177 17.6945 16.7536 17.7273 14.9877Z" fill="#8F939F"/>
</svg>
