<svg width="18" height="18" viewBox="0 0 18 18" fill="none" xmlns="http://www.w3.org/2000/svg">
<path d="M5.25 9.75C6.04565 9.75 6.80848 10.0663 7.37109 10.6289C7.9337 11.1915 8.25 11.9544 8.25 12.75V15C8.25 15.7956 7.9337 16.5585 7.37109 17.1211C6.80848 17.6837 6.04565 18 5.25 18H3C2.20435 18 1.44152 17.6837 0.878906 17.1211C0.316297 16.5585 0 15.7956 0 15V12.75C0 11.9544 0.316297 11.1915 0.878906 10.6289C1.44152 10.0663 2.20435 9.75 3 9.75H5.25ZM15 9.75C15.7956 9.75 16.5585 10.0663 17.1211 10.6289C17.6837 11.1915 18 11.9544 18 12.75V15C18 15.7956 17.6837 16.5585 17.1211 17.1211C16.5585 17.6837 15.7956 18 15 18H12.75C11.9544 18 11.1915 17.6837 10.6289 17.1211C10.0663 16.5585 9.75 15.7956 9.75 15V12.75C9.75 11.9544 10.0663 11.1915 10.6289 10.6289C11.1915 10.0663 11.9544 9.75 12.75 9.75H15ZM3 11.25C2.60218 11.25 2.22076 11.4081 1.93945 11.6895C1.65815 11.9708 1.5 12.3522 1.5 12.75V15C1.5 15.3978 1.65815 15.7792 1.93945 16.0605C2.22076 16.3419 2.60218 16.5 3 16.5H5.25C5.64782 16.5 6.02924 16.3419 6.31055 16.0605C6.59185 15.7792 6.75 15.3978 6.75 15V12.75C6.75 12.3522 6.59185 11.9708 6.31055 11.6895C6.02924 11.4081 5.64782 11.25 5.25 11.25H3ZM12.75 11.25C12.3522 11.25 11.9708 11.4081 11.6895 11.6895C11.4081 11.9708 11.25 12.3522 11.25 12.75V15C11.25 15.3978 11.4081 15.7792 11.6895 16.0605C11.9708 16.3419 12.3522 16.5 12.75 16.5H15C15.3978 16.5 15.7792 16.3419 16.0605 16.0605C16.3419 15.7792 16.5 15.3978 16.5 15V12.75C16.5 12.3522 16.3419 11.9708 16.0605 11.6895C15.7792 11.4081 15.3978 11.25 15 11.25H12.75ZM5.25 0C6.04565 0 6.80848 0.316297 7.37109 0.878906C7.9337 1.44152 8.25 2.20435 8.25 3V5.25C8.25 6.04565 7.9337 6.80848 7.37109 7.37109C6.80848 7.9337 6.04565 8.25 5.25 8.25H3C2.20435 8.25 1.44152 7.9337 0.878906 7.37109C0.316297 6.80848 0 6.04565 0 5.25V3C0 2.20435 0.316297 1.44152 0.878906 0.878906C1.44152 0.316297 2.20435 0 3 0H5.25ZM15 0C15.7956 0 16.5585 0.316297 17.1211 0.878906C17.6837 1.44152 18 2.20435 18 3V5.25C18 6.04565 17.6837 6.80848 17.1211 7.37109C16.5585 7.9337 15.7956 8.25 15 8.25H12.75C11.9544 8.25 11.1915 7.9337 10.6289 7.37109C10.0663 6.80848 9.75 6.04565 9.75 5.25V3C9.75 2.20435 10.0663 1.44152 10.6289 0.878906C11.1915 0.316297 11.9544 0 12.75 0H15ZM3 1.5C2.60218 1.5 2.22076 1.65815 1.93945 1.93945C1.65815 2.22076 1.5 2.60218 1.5 3V5.25C1.5 5.64782 1.65815 6.02924 1.93945 6.31055C2.22076 6.59185 2.60218 6.75 3 6.75H5.25C5.64782 6.75 6.02924 6.59185 6.31055 6.31055C6.59185 6.02924 6.75 5.64782 6.75 5.25V3C6.75 2.60218 6.59185 2.22076 6.31055 1.93945C6.02924 1.65815 5.64782 1.5 5.25 1.5H3ZM12.75 1.5C12.3522 1.5 11.9708 1.65815 11.6895 1.93945C11.4081 2.22076 11.25 2.60218 11.25 3V5.25C11.25 5.64782 11.4081 6.02924 11.6895 6.31055C11.9708 6.59185 12.3522 6.75 12.75 6.75H15C15.3978 6.75 15.7792 6.59185 16.0605 6.31055C16.3419 6.02924 16.5 5.64782 16.5 5.25V3C16.5 2.60218 16.3419 2.22076 16.0605 1.93945C15.7792 1.65815 15.3978 1.5 15 1.5H12.75Z" fill="white"/>
</svg>
