<svg width="20" height="20" viewBox="0 0 20 20" fill="none" xmlns="http://www.w3.org/2000/svg">
<path d="M0 12.5V4.16667C0 1.86667 2.03636 0 4.54545 0H15.4545C17.9636 0 20 1.86667 20 4.16667V12.5H0ZM20 14.1667V15.8333C20 18.1333 17.9636 20 15.4545 20H4.54545C2.03636 20 0 18.1333 0 15.8333V14.1667H20ZM13.6364 17.0833C13.6364 16.3917 13.0273 15.8333 12.2727 15.8333C11.5182 15.8333 10.9091 16.3917 10.9091 17.0833C10.9091 17.775 11.5182 18.3333 12.2727 18.3333C13.0273 18.3333 13.6364 17.775 13.6364 17.0833ZM17.2727 17.0833C17.2727 16.3917 16.6636 15.8333 15.9091 15.8333C15.1545 15.8333 14.5455 16.3917 14.5455 17.0833C14.5455 17.775 15.1545 18.3333 15.9091 18.3333C16.6636 18.3333 17.2727 17.775 17.2727 17.0833Z" fill="#9F9FA9"/>
</svg>
