<svg width="30" height="33" viewBox="0 0 30 33" fill="none" xmlns="http://www.w3.org/2000/svg">
<path d="M0 20.625V6.875C0 3.08 3.05455 0 6.81818 0H23.1818C26.9455 0 30 3.08 30 6.875V20.625H0ZM30 23.375V26.125C30 29.92 26.9455 33 23.1818 33H6.81818C3.05455 33 0 29.92 0 26.125V23.375H30ZM20.4545 28.1875C20.4545 27.0462 19.5409 26.125 18.4091 26.125C17.2773 26.125 16.3636 27.0462 16.3636 28.1875C16.3636 29.3288 17.2773 30.25 18.4091 30.25C19.5409 30.25 20.4545 29.3288 20.4545 28.1875ZM25.9091 28.1875C25.9091 27.0462 24.9955 26.125 23.8636 26.125C22.7318 26.125 21.8182 27.0462 21.8182 28.1875C21.8182 29.3288 22.7318 30.25 23.8636 30.25C24.9955 30.25 25.9091 29.3288 25.9091 28.1875Z" fill="#8F939F"/>
</svg>
