<svg width="25" height="25" viewBox="0 0 25 25" fill="none" xmlns="http://www.w3.org/2000/svg">
<g clip-path="url(#clip0_314_1552)">
<path d="M14.8899 12.5004C14.8899 13.8204 13.8199 14.8904 12.4999 14.8904C11.1799 14.8904 10.1099 13.8204 10.1099 12.5004C10.1099 11.1804 11.1799 10.1104 12.4999 10.1104C13.8199 10.1104 14.8899 11.1804 14.8899 12.5004Z" fill="white"/>
<path d="M18.0999 8.27035C17.9899 7.96035 17.7999 7.68035 17.5599 7.44035C17.3299 7.20035 17.0499 7.02035 16.7299 6.90035C16.4799 6.80035 16.0999 6.68035 15.3999 6.65035C14.6399 6.62035 14.4199 6.61035 12.4999 6.61035C10.5799 6.61035 10.3599 6.61035 9.59986 6.65035C8.89986 6.68035 8.51986 6.80035 8.26986 6.90035C7.95986 7.02035 7.67986 7.20035 7.43986 7.44035C7.19986 7.67035 7.01986 7.95035 6.89986 8.27035C6.79986 8.52035 6.67986 8.90035 6.64986 9.60035C6.61986 10.3604 6.60986 10.5804 6.60986 12.5004C6.60986 14.4204 6.60986 14.6404 6.64986 15.4004C6.67986 16.1004 6.79986 16.4804 6.89986 16.7304C7.01986 17.0404 7.19986 17.3204 7.43986 17.5604C7.66986 17.8004 7.94986 17.9804 8.26986 18.1004C8.51986 18.2004 8.89986 18.3204 9.59986 18.3504C10.3599 18.3804 10.5799 18.3904 12.4999 18.3904C14.4199 18.3904 14.6399 18.3904 15.3999 18.3504C16.0999 18.3204 16.4799 18.2004 16.7299 18.1004C17.3599 17.8604 17.8499 17.3604 18.0899 16.7404C18.1899 16.4904 18.3099 16.1104 18.3399 15.4104C18.3699 14.6504 18.3799 14.4304 18.3799 12.5104C18.3799 10.5904 18.3799 10.3704 18.3399 9.61035C18.3099 8.91035 18.1899 8.53035 18.0899 8.28035L18.0999 8.27035ZM12.4999 16.1904C10.4599 16.1904 8.80986 14.5404 8.80986 12.5004C8.80986 10.4604 10.4599 8.81035 12.4999 8.81035C14.5399 8.81035 16.1899 10.4604 16.1899 12.5004C16.1899 14.5404 14.5399 16.1904 12.4999 16.1904ZM16.3299 9.53035C15.8499 9.53035 15.4699 9.14035 15.4699 8.67035C15.4699 8.20035 15.8599 7.81035 16.3299 7.81035C16.7999 7.81035 17.1899 8.20035 17.1899 8.67035C17.1899 9.15035 16.7999 9.53035 16.3299 9.53035Z" fill="white"/>
<path d="M12.5 0C5.6 0 0 5.6 0 12.5C0 19.4 5.6 25 12.5 25C19.4 25 25 19.4 25 12.5C25 5.6 19.4 0 12.5 0ZM19.63 15.46C19.6 16.22 19.47 16.75 19.3 17.2C18.93 18.16 18.16 18.93 17.2 19.3C16.74 19.48 16.22 19.6 15.46 19.63C14.69 19.66 14.45 19.67 12.5 19.67C10.55 19.67 10.31 19.67 9.54 19.63C8.78 19.6 8.25 19.47 7.8 19.3C7.32 19.12 6.89 18.84 6.53 18.47C6.16 18.11 5.88 17.68 5.7 17.2C5.52 16.74 5.4 16.22 5.37 15.46C5.33 14.69 5.33 14.45 5.33 12.5C5.33 10.55 5.33 10.31 5.37 9.54C5.4 8.78 5.53 8.25 5.7 7.8C5.88 7.32 6.16 6.89 6.53 6.53C6.89 6.16 7.32 5.88 7.8 5.7C8.26 5.52 8.78 5.4 9.54 5.37C10.31 5.34 10.55 5.33 12.5 5.33C14.45 5.33 14.69 5.33 15.46 5.37C16.22 5.4 16.75 5.53 17.2 5.7C17.68 5.88 18.11 6.16 18.47 6.53C18.83 6.89 19.12 7.32 19.3 7.8C19.48 8.26 19.6 8.78 19.63 9.54C19.66 10.31 19.67 10.55 19.67 12.5C19.67 14.45 19.67 14.69 19.63 15.46Z" fill="white"/>
</g>
<defs>
<clipPath id="clip0_314_1552">
<rect width="25" height="25" fill="white"/>
</clipPath>
</defs>
</svg>
