<svg width="25" height="25" viewBox="0 0 25 25" fill="none" xmlns="http://www.w3.org/2000/svg">
<g clip-path="url(#clip0_314_1556)">
<path d="M12.5 0C5.6 0 0 5.6 0 12.5C0 19.4 5.6 25 12.5 25C19.4 25 25 19.4 25 12.5C25 5.6 19.4 0 12.5 0ZM8.87 18.9H5.83V9.74H8.87V18.9ZM7.35 8.49H7.33C6.31 8.49 5.65 7.79 5.65 6.91C5.65 6.03 6.33 5.33 7.37 5.33C8.41 5.33 9.05 6.01 9.07 6.91C9.07 7.79 8.41 8.49 7.35 8.49ZM19.84 18.9H16.8V14C16.8 12.77 16.36 11.93 15.26 11.93C14.42 11.93 13.92 12.5 13.7 13.04C13.62 13.24 13.6 13.51 13.6 13.78V18.89H10.56C10.56 18.89 10.6 10.59 10.56 9.73H13.6V11.03C14 10.41 14.73 9.52 16.34 9.52C18.34 9.52 19.84 10.83 19.84 13.64V18.89V18.9Z" fill="white"/>
</g>
<defs>
<clipPath id="clip0_314_1556">
<rect width="25" height="25" fill="white"/>
</clipPath>
</defs>
</svg>
