<svg width="30" height="30" viewBox="0 0 30 30" fill="none" xmlns="http://www.w3.org/2000/svg">
<path d="M30 15C30 15.3315 29.8683 15.6495 29.6339 15.8839C29.3995 16.1183 29.0815 16.25 28.75 16.25C28.4185 16.25 28.1005 16.1183 27.8661 15.8839C27.6317 15.6495 27.5 15.3315 27.5 15C27.4964 11.6859 26.1782 8.5086 23.8348 6.16518C21.4914 3.82177 18.3141 2.50364 15 2.5C14.6685 2.5 14.3505 2.3683 14.1161 2.13388C13.8817 1.89946 13.75 1.58152 13.75 1.25C13.75 0.918479 13.8817 0.600537 14.1161 0.366117C14.3505 0.131696 14.6685 0 15 0C18.9769 0.00430135 22.7897 1.58604 25.6019 4.39815C28.414 7.21026 29.9957 11.0231 30 15ZM20 16.25C20.3315 16.25 20.6495 16.1183 20.8839 15.8839C21.1183 15.6495 21.25 15.3315 21.25 15C21.25 14.6685 21.1183 14.3505 20.8839 14.1161C20.6495 13.8817 20.3315 13.75 20 13.75H17.1537C16.9359 13.3755 16.6245 13.0641 16.25 12.8463V8.75C16.25 8.41848 16.1183 8.10054 15.8839 7.86612C15.6495 7.6317 15.3315 7.5 15 7.5C14.6685 7.5 14.3505 7.6317 14.1161 7.86612C13.8817 8.10054 13.75 8.41848 13.75 8.75V12.8463C13.4185 13.0371 13.1353 13.3018 12.9225 13.6197C12.7097 13.9376 12.5729 14.3002 12.5227 14.6795C12.4726 15.0588 12.5104 15.4445 12.6333 15.8068C12.7561 16.1691 12.9607 16.4982 13.2313 16.7687C13.5018 17.0393 13.8309 17.2439 14.1932 17.3667C14.5555 17.4896 14.9412 17.5274 15.3205 17.4773C15.6998 17.4271 16.0624 17.2903 16.3803 17.0775C16.6982 16.8647 16.9629 16.5815 17.1537 16.25H20ZM2.28375 8.48C2.03652 8.48 1.79485 8.55331 1.58929 8.69066C1.38373 8.82801 1.22351 9.02324 1.1289 9.25165C1.03429 9.48005 1.00954 9.73139 1.05777 9.97386C1.106 10.2163 1.22505 10.4391 1.39987 10.6139C1.57468 10.7887 1.79741 10.9077 2.03989 10.956C2.28236 11.0042 2.5337 10.9795 2.7621 10.8848C2.99051 10.7902 3.18574 10.63 3.32309 10.4245C3.46044 10.2189 3.53375 9.97723 3.53375 9.73C3.53375 9.39848 3.40205 9.08054 3.16763 8.84612C2.93321 8.6117 2.61527 8.48 2.28375 8.48ZM2.5 15C2.5 14.7528 2.42669 14.5111 2.28934 14.3055C2.15199 14.1 1.95676 13.9398 1.72835 13.8451C1.49995 13.7505 1.24861 13.7258 1.00614 13.774C0.763661 13.8222 0.540933 13.9413 0.366117 14.1161C0.191301 14.2909 0.0722505 14.5137 0.024019 14.7561C-0.0242126 14.9986 0.000541601 15.2499 0.0951511 15.4784C0.189761 15.7068 0.349976 15.902 0.555538 16.0393C0.761099 16.1767 1.00277 16.25 1.25 16.25C1.58152 16.25 1.89946 16.1183 2.13388 15.8839C2.3683 15.6495 2.5 15.3315 2.5 15ZM15 27.5C14.7528 27.5 14.5111 27.5733 14.3055 27.7107C14.1 27.848 13.9398 28.0432 13.8451 28.2716C13.7505 28.5001 13.7258 28.7514 13.774 28.9939C13.8222 29.2363 13.9413 29.4591 14.1161 29.6339C14.2909 29.8087 14.5137 29.9277 14.7561 29.976C14.9986 30.0242 15.2499 29.9995 15.4784 29.9049C15.7068 29.8102 15.902 29.65 16.0393 29.4445C16.1767 29.2389 16.25 28.9972 16.25 28.75C16.25 28.4185 16.1183 28.1005 15.8839 27.8661C15.6495 27.6317 15.3315 27.5 15 27.5ZM5.27625 4.00875C5.02902 4.00875 4.78735 4.08206 4.58179 4.21941C4.37623 4.35676 4.21601 4.55199 4.1214 4.7804C4.02679 5.0088 4.00204 5.26014 4.05027 5.50261C4.0985 5.74509 4.21755 5.96782 4.39237 6.14263C4.56718 6.31745 4.78991 6.4365 5.03239 6.48473C5.27486 6.53296 5.5262 6.50821 5.7546 6.4136C5.98301 6.31899 6.17824 6.15877 6.31559 5.95321C6.45294 5.74765 6.52625 5.50598 6.52625 5.25875C6.52625 4.92723 6.39455 4.60929 6.16013 4.37487C5.92571 4.14045 5.60777 4.00875 5.27625 4.00875ZM9.72375 1.05125C9.47652 1.05125 9.23485 1.12456 9.02929 1.26191C8.82373 1.39926 8.66351 1.59449 8.5689 1.8229C8.47429 2.0513 8.44954 2.30264 8.49777 2.54511C8.546 2.78759 8.66505 3.01032 8.83987 3.18513C9.01468 3.35995 9.23741 3.479 9.47989 3.52723C9.72236 3.57546 9.9737 3.55071 10.2021 3.4561C10.4305 3.36149 10.6257 3.20127 10.7631 2.99571C10.9004 2.79015 10.9738 2.54848 10.9738 2.30125C10.9738 1.96973 10.8421 1.65179 10.6076 1.41737C10.3732 1.18295 10.0553 1.05125 9.72375 1.05125ZM2.28375 19.02C2.03652 19.02 1.79485 19.0933 1.58929 19.2307C1.38373 19.368 1.22351 19.5632 1.1289 19.7916C1.03429 20.0201 1.00954 20.2714 1.05777 20.5139C1.106 20.7563 1.22505 20.9791 1.39987 21.1539C1.57468 21.3287 1.79741 21.4478 2.03989 21.496C2.28236 21.5442 2.5337 21.5195 2.7621 21.4248C2.99051 21.3302 3.18574 21.17 3.32309 20.9645C3.46044 20.7589 3.53375 20.5172 3.53375 20.27C3.53375 19.9385 3.40205 19.6205 3.16763 19.3861C2.93321 19.1517 2.61527 19.02 2.28375 19.02ZM5.27625 23.4912C5.02902 23.4912 4.78735 23.5646 4.58179 23.7019C4.37623 23.8393 4.21601 24.0345 4.1214 24.2629C4.02679 24.4913 4.00204 24.7426 4.05027 24.9851C4.0985 25.2276 4.21755 25.4503 4.39237 25.6251C4.56718 25.7999 4.78991 25.919 5.03239 25.9672C5.27486 26.0155 5.5262 25.9907 5.7546 25.8961C5.98301 25.8015 6.17824 25.6413 6.31559 25.4357C6.45294 25.2302 6.52625 24.9885 6.52625 24.7412C6.52625 24.4097 6.39455 24.0918 6.16013 23.8574C5.92571 23.6229 5.60777 23.4912 5.27625 23.4912ZM9.72375 26.4487C9.47652 26.4487 9.23485 26.5221 9.02929 26.6594C8.82373 26.7968 8.66351 26.992 8.5689 27.2204C8.47429 27.4488 8.44954 27.7001 8.49777 27.9426C8.546 28.1851 8.66505 28.4078 8.83987 28.5826C9.01468 28.7574 9.23741 28.8765 9.47989 28.9247C9.72236 28.973 9.9737 28.9482 10.2021 28.8536C10.4305 28.759 10.6257 28.5988 10.7631 28.3932C10.9004 28.1877 10.9738 27.946 10.9738 27.6987C10.9738 27.3672 10.8421 27.0493 10.6076 26.8149C10.3732 26.5804 10.0553 26.4487 9.72375 26.4487ZM27.7163 19.02C27.469 19.02 27.2273 19.0933 27.0218 19.2307C26.8162 19.368 26.656 19.5632 26.5614 19.7916C26.4668 20.0201 26.442 20.2714 26.4903 20.5139C26.5385 20.7563 26.6576 20.9791 26.8324 21.1539C27.0072 21.3287 27.2299 21.4478 27.4724 21.496C27.7149 21.5442 27.9662 21.5195 28.1946 21.4248C28.423 21.3302 28.6182 21.17 28.7556 20.9645C28.8929 20.7589 28.9663 20.5172 28.9663 20.27C28.9663 19.9385 28.8346 19.6205 28.6001 19.3861C28.3657 19.1517 28.0478 19.02 27.7163 19.02ZM24.7237 23.4912C24.4765 23.4912 24.2348 23.5646 24.0293 23.7019C23.8237 23.8393 23.6635 24.0345 23.5689 24.2629C23.4743 24.4913 23.4495 24.7426 23.4978 24.9851C23.546 25.2276 23.6651 25.4503 23.8399 25.6251C24.0147 25.7999 24.2374 25.919 24.4799 25.9672C24.7224 26.0155 24.9737 25.9907 25.2021 25.8961C25.4305 25.8015 25.6257 25.6413 25.7631 25.4357C25.9004 25.2302 25.9737 24.9885 25.9737 24.7412C25.9737 24.4097 25.8421 24.0918 25.6076 23.8574C25.3732 23.6229 25.0553 23.4912 24.7237 23.4912ZM20.2763 26.4487C20.029 26.4487 19.7873 26.5221 19.5818 26.6594C19.3762 26.7968 19.216 26.992 19.1214 27.2204C19.0268 27.4488 19.002 27.7001 19.0503 27.9426C19.0985 28.1851 19.2176 28.4078 19.3924 28.5826C19.5672 28.7574 19.7899 28.8765 20.0324 28.9247C20.2749 28.973 20.5262 28.9482 20.7546 28.8536C20.983 28.759 21.1782 28.5988 21.3156 28.3932C21.4529 28.1877 21.5263 27.946 21.5263 27.6987C21.5263 27.3672 21.3946 27.0493 21.1601 26.8149C20.9257 26.5804 20.6078 26.4487 20.2763 26.4487Z" fill="white"/>
</svg>
