<svg width="20" height="20" viewBox="0 0 20 20" fill="none" xmlns="http://www.w3.org/2000/svg">
<path d="M6.35842 1.34937e-05C6.85591 -0.00267728 7.27248 0.39737 7.27248 0.919935V1.8174H9.08498L9.09572 0.877943C9.10199 0.364956 9.54658 -0.0109664 10.0186 0.000990056C10.5429 0.0140881 10.9158 0.435651 10.9131 0.963881L10.9082 1.81642L12.7285 1.81837V0.919935C12.7287 0.398022 13.1423 -0.00185603 13.6426 0.000990056C14.143 0.00386782 14.5446 0.401927 14.5469 0.922865L14.5518 1.90822C16.3288 2.29139 17.699 3.63429 18.0879 5.44142L19.1182 5.45997C19.6374 5.46971 20.0167 5.9125 19.999 6.39357C19.9796 6.91107 19.5603 7.28077 19.0371 7.27736L18.1817 7.2715L18.1846 9.09279L19.0371 9.0879C19.5675 9.08528 19.9887 9.46746 19.999 9.98244C20.0099 10.5124 19.5807 10.9177 19.0371 10.9151L18.1846 10.9102L18.1817 12.7285H19.0801C19.6015 12.7285 20.0016 13.1429 19.999 13.6426C19.9962 14.1384 19.5982 14.5449 19.0791 14.5479L18.0908 14.5527C17.7076 16.3443 16.3419 17.7106 14.5508 18.0938L14.5459 19.0801V19.0791C14.5429 19.5838 14.1619 19.9772 13.6778 19.999C13.195 20.0207 12.7372 19.642 12.7324 19.124L12.7256 18.1826H10.916L10.9033 19.124C10.8963 19.6351 10.4568 20.0104 9.98147 19.999C9.50609 19.9876 9.09141 19.5913 9.09084 19.0801L9.08987 18.1836L7.27248 18.1817V19.0801C7.27121 19.5878 6.88062 19.982 6.39162 19.999C5.90259 20.0161 5.46315 19.6336 5.45803 19.1172L5.44729 18.0899C3.65912 17.7071 2.28951 16.3396 1.9092 14.5508L0.881858 14.541C0.378052 14.5358 0.00172961 14.1084 2.17012e-05 13.6416C-0.00151423 13.1367 0.39852 12.7266 0.919944 12.7266H1.8174V10.9131L0.92092 10.9092C0.392142 10.9069 -0.0095688 10.4846 0.000998264 9.98146C0.0123855 9.46278 0.434952 9.08408 0.963889 9.08693L1.81545 9.09083L1.81838 7.27443L0.876975 7.26662C0.370888 7.26263 -0.00328159 6.82691 2.17012e-05 6.35841C0.00343703 5.85637 0.401849 5.45716 0.92092 5.45412L1.90822 5.44826C2.29085 3.65595 3.65691 2.29236 5.44924 1.90919L5.45315 0.921888C5.45542 0.40093 5.8608 0.00286026 6.35842 1.34937e-05ZM8.17287 13.6377C7.65994 13.6377 7.27737 14.0615 7.27444 14.5391C7.27159 15.019 7.65158 15.4527 8.16799 15.4522L11.8574 15.4483L11.8565 15.4492C12.3922 15.4492 12.7479 14.9669 12.7246 14.5C12.7013 14.0372 12.3257 13.6378 11.8281 13.6377H8.17287ZM9.82815 4.54689C9.10961 4.54803 8.43489 4.82589 7.92873 5.33204L5.33205 7.92872C4.83842 8.42235 4.54844 9.08145 4.54787 9.78517L4.5469 11.835C4.54699 12.3467 4.97892 12.729 5.45998 12.7256C5.94097 12.722 6.35964 12.338 6.36135 11.8291L6.36623 9.80177C6.3668 9.57802 6.4743 9.35679 6.61721 9.21388L9.19143 6.63869C9.3599 6.47021 9.58797 6.36589 9.82815 6.36525L11.8291 6.36134C12.3541 6.3602 12.7444 5.91184 12.7256 5.41994C12.7068 4.92589 12.3065 4.54208 11.792 4.54298L9.82815 4.54689ZM14.5401 7.27443C14.0624 7.27727 13.6377 7.65874 13.6377 8.17287V11.8281C13.6378 12.3404 14.0632 12.7232 14.5391 12.7256C15.0201 12.7279 15.454 12.3519 15.4541 11.8145L15.4531 8.16701C15.4531 7.65012 15.0188 7.27169 14.5401 7.27443Z" fill="#9F9FA9"/>
</svg>
