<svg width="30" height="30" viewBox="0 0 30 30" fill="none" xmlns="http://www.w3.org/2000/svg">
<path d="M21.8191 28.6177C21.8148 29.3752 21.2426 29.9662 20.5158 29.9987C19.7916 30.0311 19.1058 29.4623 19.099 28.6852L19.0879 27.2735H16.3737L16.3549 28.6852C16.3447 29.4521 15.6854 30.0158 14.9722 29.9987C14.2591 29.9816 13.6374 29.3872 13.6365 28.6203L13.6348 27.2752L10.9087 27.2718V28.6194C10.907 29.3812 10.3211 29.9722 9.58751 29.9978C8.85389 30.0234 8.19457 29.4504 8.18688 28.6758L8.17151 27.1343C5.48896 26.5604 3.43414 24.5098 2.86364 21.8265L1.32295 21.8111C0.567119 21.8034 0.00259694 21.1629 3.48142e-05 20.4626C-0.00252731 19.7051 0.59701 19.0902 1.37931 19.0902H2.72614V16.3692L1.38102 16.3632C0.587616 16.3598 -0.0153381 15.7261 0.000888713 14.9712C0.0179696 14.1931 0.651669 13.6261 1.44507 13.6303L2.72357 13.6363L2.72699 10.9111L1.31526 10.9C0.556016 10.894 -0.00508944 10.2398 3.48142e-05 9.53697C0.00515907 8.78372 0.602988 8.18505 1.38187 8.18077L2.86278 8.17223C3.4367 5.48375 5.48469 3.43835 8.17322 2.86358L8.18005 1.38184C8.18347 0.600406 8.79069 0.00429282 9.53712 2.26679e-05C10.2836 -0.00424748 10.9087 0.595281 10.9087 1.37928V2.72609H13.628L13.6442 1.31608C13.6536 0.546602 14.3198 -0.016204 15.0278 0.0017306C15.8143 0.0213733 16.3737 0.653355 16.3695 1.4459L16.3626 2.72438L19.0921 2.72779V1.38013C19.0921 0.596989 19.713 -0.0033936 20.4637 0.000876554C21.2144 0.0051467 21.8165 0.602114 21.82 1.38355L21.8276 2.86188C24.4931 3.43664 26.5488 5.45044 27.1321 8.16113L28.6771 8.18931C29.4559 8.20383 30.0256 8.86827 29.9991 9.58992C29.9701 10.3662 29.3406 10.9205 28.5558 10.9154L27.273 10.9068L27.2764 13.6389L28.5549 13.632C29.3509 13.6278 29.9837 14.2008 29.9991 14.9737C30.0153 15.7688 29.3705 16.376 28.5549 16.3718L27.2764 16.3649L27.2722 19.0927H28.6207C29.403 19.0927 30.0034 19.7144 29.9991 20.4643C29.9948 21.2081 29.397 21.8171 28.6181 21.8213L27.1355 21.8282C26.5607 24.5158 24.5127 26.5655 21.8259 27.1402L21.8182 28.6203L21.8191 28.6177ZM9.54993 14.7021C9.55079 14.3665 9.71135 14.0351 9.92571 13.8208L13.7877 9.95716C14.0405 9.70436 14.3821 9.54893 14.7425 9.54808L17.7436 9.54124C18.531 9.53954 19.1161 8.86741 19.0879 8.12953C19.0597 7.38823 18.4593 6.81262 17.6872 6.81433L14.7417 6.81945C13.6639 6.82116 12.6518 7.23793 11.8926 7.99716L7.99728 11.8932C7.25683 12.6337 6.82298 13.6218 6.82212 14.6774L6.82042 17.7519C6.82042 18.5197 7.46778 19.0936 8.18944 19.0884C8.91111 19.0833 9.53883 18.5069 9.54139 17.7433L9.54993 14.7021ZM23.1813 17.7211L23.1796 12.2502C23.1796 11.4748 22.528 10.9068 21.8097 10.9111C21.0932 10.9154 20.456 11.4876 20.456 12.2588V17.7416C20.456 18.5103 21.0949 19.085 21.8089 19.0884C22.5305 19.0919 23.1813 18.5282 23.1813 17.722V17.7211ZM17.7846 23.1733C18.5883 23.1733 19.122 22.4499 19.087 21.7496C19.052 21.0553 18.4883 20.4557 17.7419 20.4557H12.259C11.4895 20.4557 10.9155 21.092 10.9113 21.8085C10.907 22.5285 11.4767 23.1784 12.2513 23.1775L17.7855 23.1724L17.7846 23.1733Z" fill="#8F939F"/>
</svg>
