<?xml version="1.0" encoding="UTF-8"?>
<svg id="Layer_1" xmlns="http://www.w3.org/2000/svg" version="1.1" viewBox="0 0 246.74 53">
  <!-- Generator: Adobe Illustrator 30.2.1, SVG Export Plug-In . SVG Version: 2.1.1 Build 1)  -->
  <defs>
    <style>
      .st0 {
        fill: #2a7cff;
      }
    </style>
  </defs>
  <g>
    <polygon points="42.59 24 42.59 14.21 21.29 1.91 0 14.21 0 38.79 21.29 51.09 42.59 38.79 42.59 27.2 37.59 27.2 33.07 27.2 28.07 27.2 28.07 30.41 21.29 34.33 14.52 30.41 14.52 27.2 9.52 27.2 9.52 33.3 21.29 40.1 33.07 33.3 33.07 30.4 37.59 30.4 37.59 35.91 21.29 45.31 5 35.91 5 17.09 21.29 7.69 37.59 17.09 37.59 24 42.59 24"/>
    <polygon class="st0" points="33.07 24 33.07 19.7 21.29 12.9 9.52 19.7 9.52 24 14.52 24 14.52 22.59 21.29 18.67 28.07 22.59 28.07 24 33.07 24"/>
  </g>
  <g>
    <path d="M72.52,14.31c-1.02-.85-2.27-1.27-3.72-1.27h-13.82v26.93h4.69v-10.15h9.12c1.45,0,2.7-.43,3.72-1.27,1.04-.86,1.57-1.92,1.57-3.13v-7.94c0-1.24-.53-2.31-1.57-3.17ZM59.68,16.72h7.76c.53,0,.98.16,1.37.48.37.3.55.65.55,1.04v6.36c0,.42-.18.78-.55,1.08-.39.32-.84.48-1.37.48h-7.76v-9.44Z"/>
    <path d="M94.58,14.31c-1.02-.85-2.27-1.27-3.72-1.27h-8.57c-1.41,0-2.65.43-3.67,1.27-1.04.86-1.57,1.93-1.57,3.17v18.05c0,1.24.53,2.31,1.57,3.17,1.02.85,2.26,1.28,3.67,1.28h8.57c1.45,0,2.7-.43,3.72-1.28,1.04-.86,1.57-1.93,1.57-3.17v-3.76h-4.74v2.99c0,.4-.18.74-.55,1.04-.39.32-.84.48-1.37.48h-5.8c-.56,0-1.03-.16-1.42-.48-.37-.3-.54-.64-.54-1.04v-16.52c0-.4.18-.74.55-1.04.39-.32.85-.48,1.42-.48h5.8c.53,0,.98.16,1.37.48.37.3.55.65.55,1.04v2.99h4.74v-3.76c0-1.24-.53-2.31-1.57-3.17Z"/>
    <path d="M131.01,14.31c-1.02-.85-2.28-1.27-3.72-1.27h-8.57c-1.41,0-2.65.43-3.67,1.27-1.04.86-1.57,1.93-1.57,3.17v18.05c0,1.24.53,2.31,1.57,3.17,1.02.85,2.26,1.28,3.67,1.28h8.57c1.45,0,2.7-.43,3.72-1.28,1.04-.86,1.57-1.93,1.57-3.17v-10.65h-9.05v3.45h4.31v6.43c0,.4-.18.74-.55,1.04-.39.32-.83.48-1.37.48h-5.8c-.56,0-1.03-.16-1.42-.48-.37-.3-.54-.64-.54-1.04v-16.52c0-.4.18-.74.55-1.04.39-.32.85-.48,1.42-.48h5.8c.53,0,.98.16,1.37.48.37.3.55.65.55,1.04v2.95h4.74v-3.72c0-1.24-.53-2.31-1.57-3.17Z"/>
    <path d="M144.11,13.03l-9.22,26.93h4.89l1.95-6h9.29l1.9,6h4.94l-9.22-26.93h-4.53ZM149.82,30.56h-6.87l3.44-11.16,3.44,11.16Z"/>
    <path d="M178.27,28.18c.83-.82,1.26-1.78,1.26-2.85v-7.85c0-1.24-.53-2.31-1.57-3.17-1.02-.85-2.28-1.27-3.72-1.27h-13.82v26.93h4.69v-10.23h5.62l4.72,10.23h5.02l-4.81-10.4c1.03-.23,1.91-.69,2.62-1.39ZM165.11,16.72h7.76c.53,0,.98.16,1.37.48.37.3.55.64.55,1.04v6.28c0,.42-.18.78-.55,1.08-.39.32-.83.48-1.37.48h-7.76v-9.36Z"/>
    <path d="M191.94,13.03l-9.22,26.93h4.89l1.95-6h9.29l1.9,6h4.94l-9.22-26.93h-4.53ZM197.64,30.56h-6.87l3.44-11.16,3.44,11.16Z"/>
    <path d="M225.54,14.31c-1.02-.85-2.28-1.27-3.72-1.27h-8.57c-1.42,0-2.65.43-3.67,1.27-1.04.86-1.57,1.93-1.57,3.17v18.05c0,1.24.53,2.31,1.57,3.17,1.02.85,2.26,1.28,3.67,1.28h8.57c1.45,0,2.7-.43,3.72-1.28,1.04-.86,1.57-1.93,1.57-3.17v-10.65h-9.05v3.45h4.31v6.43c0,.4-.18.74-.55,1.04-.39.32-.83.48-1.37.48h-5.8c-.57,0-1.03-.16-1.42-.48-.37-.3-.55-.64-.55-1.04v-16.52c0-.4.18-.74.55-1.04.39-.32.85-.48,1.42-.48h5.8c.53,0,.98.16,1.37.48.37.3.55.64.55,1.04v2.95h4.74v-3.72c0-1.24-.53-2.31-1.57-3.17Z"/>
    <polygon points="246.74 16.64 246.74 13.03 230.55 13.03 230.55 39.97 246.74 39.97 246.74 36.36 235.24 36.36 235.24 27.92 242.96 27.92 242.96 24.31 235.24 24.31 235.24 16.64 246.74 16.64"/>
  </g>
</svg>