<svg width="15" height="15" viewBox="0 0 15 15" fill="none" xmlns="http://www.w3.org/2000/svg">
<path d="M14.4087 10.4619C14.7709 10.8251 14.9743 11.3171 14.9743 11.8301C14.9743 12.343 14.7709 12.835 14.4087 13.1982L13.8399 13.8538C8.72119 18.7544 -3.73504 6.30131 1.08995 1.16631L1.8087 0.54131C2.1723 0.189233 2.65991 -0.00553464 3.16601 -0.000856035C3.67212 0.00382257 4.15604 0.207571 4.51307 0.56631C4.53245 0.585685 5.69057 2.09006 5.69057 2.09006C6.03421 2.45108 6.22551 2.93064 6.2247 3.42906C6.22388 3.92748 6.03102 4.40642 5.6862 4.76631L4.96245 5.67631C5.36298 6.64951 5.95186 7.53397 6.69526 8.27887C7.43866 9.02378 8.32193 9.61444 9.29432 10.0169L10.2099 9.28881C10.5699 8.94426 11.0487 8.75162 11.547 8.75092C12.0453 8.75022 12.5247 8.94152 12.8856 9.28506C12.8856 9.28506 14.3893 10.4426 14.4087 10.4619ZM13.5487 11.3707C13.5487 11.3707 12.0531 10.2201 12.0337 10.2007C11.9049 10.073 11.7309 10.0014 11.5496 10.0014C11.3683 10.0014 11.1943 10.073 11.0656 10.2007C11.0487 10.2182 9.78807 11.2226 9.78807 11.2226C9.70311 11.2902 9.60201 11.3345 9.49472 11.3512C9.38743 11.3678 9.27765 11.3562 9.17619 11.3176C7.91648 10.8485 6.77228 10.1143 5.82109 9.16448C4.8699 8.2147 4.13395 7.07158 3.66307 5.81256C3.62132 5.70972 3.60771 5.59762 3.62364 5.48777C3.63956 5.37793 3.68446 5.27431 3.7537 5.18756C3.7537 5.18756 4.75807 3.92631 4.77495 3.91006C4.90261 3.7813 4.97425 3.60732 4.97425 3.426C4.97425 3.24467 4.90261 3.07069 4.77495 2.94193C4.75557 2.92318 3.60495 1.42631 3.60495 1.42631C3.47426 1.30913 3.3037 1.24637 3.12823 1.2509C2.95276 1.25543 2.78566 1.32691 2.6612 1.45068L1.94245 2.07569C-1.5838 6.31569 9.21057 16.5113 12.9262 13.0001L13.4956 12.3438C13.629 12.2202 13.7091 12.0496 13.719 11.868C13.729 11.6864 13.6679 11.5081 13.5487 11.3707Z" fill="#898989"/>
</svg>
