<svg width="8" height="9" viewBox="0 0 8 9" fill="none" xmlns="http://www.w3.org/2000/svg">
<path d="M7.16379 2.98588L3.25754 0.362328C2.95244 0.157697 2.59143 0.0344451 2.21453 0.00623296C1.83763 -0.0219792 1.45956 0.0459508 1.12224 0.202493C0.784909 0.359036 0.501496 0.598076 0.303412 0.893118C0.105328 1.18816 0.000311727 1.52768 2.47116e-06 1.87404V7.12377C-0.00058584 7.47047 0.103882 7.81051 0.301777 8.10606C0.499672 8.40161 0.78323 8.64105 1.12089 8.79775C1.45855 8.95445 1.83706 9.02224 2.21429 8.99359C2.59152 8.96494 2.95267 8.84097 3.25754 8.63548L7.16379 6.01193C7.42299 5.8377 7.63375 5.61003 7.77903 5.34734C7.9243 5.08464 8 4.79431 8 4.49984C8 4.20537 7.9243 3.91504 7.77903 3.65234C7.63375 3.38965 7.42299 3.16198 7.16379 2.98775V2.98588Z" fill="white"/>
</svg>
