<svg width="30" height="30" viewBox="0 0 30 30" fill="none" xmlns="http://www.w3.org/2000/svg">
<path d="M25.005 3.81904C21.8325 0.977795 17.5675 -0.375955 13.2988 0.0902947C6.40875 0.851545 0.856254 6.40405 0.0950035 13.2953C-0.742497 20.8753 4.03875 28.0015 11.2163 29.8665C11.5538 29.954 11.8938 29.9965 12.2325 29.9965C13.1088 29.9965 13.965 29.7078 14.68 29.154C15.6775 28.3828 16.25 27.2178 16.25 25.9578V22.3703C19.0988 21.789 21.25 19.264 21.25 16.2465V14.9965C21.9413 14.9965 22.5 14.4378 22.5 13.7465C22.5 13.0553 21.9413 12.4965 21.25 12.4965H18.75V8.74654C18.75 8.05529 18.1913 7.49654 17.5 7.49654C16.8088 7.49654 16.25 8.05529 16.25 8.74654V12.4965H13.75V8.74654C13.75 8.05529 13.19 7.49654 12.5 7.49654C11.81 7.49654 11.25 8.05529 11.25 8.74654V12.4965H8.75C8.06 12.4965 7.5 13.0553 7.5 13.7465C7.5 14.4378 8.06 14.9965 8.75 14.9965V16.2465C8.75 19.264 10.9013 21.7903 13.75 22.3703V25.9578C13.75 26.4378 13.5313 26.8803 13.1513 27.1753C12.775 27.4653 12.3 27.564 11.845 27.4465C5.95875 25.9153 1.88875 19.8203 2.58 13.5678C3.21375 7.8328 7.8375 3.20904 13.5725 2.57529C17.1863 2.18029 20.6538 3.27779 23.3375 5.68029C25.9838 8.05029 27.5013 11.4453 27.5013 14.9953C27.5013 20.184 24.3788 24.7578 19.5475 26.6428C18.9038 26.894 18.585 27.619 18.8375 28.2615C19.0888 28.9065 19.8138 29.224 20.4563 28.9715C26.2563 26.7078 30.0025 21.2215 30.0025 14.994C30.0025 10.734 28.1813 6.6603 25.0063 3.81654L25.005 3.81904Z" fill="#8F939F"/>
</svg>
