<svg width="20" height="20" viewBox="0 0 20 20" fill="none" xmlns="http://www.w3.org/2000/svg">
<path d="M5.83301 0V1.66699H7.5V0H9.16699V1.66699H10.833V0H12.5V1.66699H14.167V0H15.833V1.66699C17.2113 1.66699 18.333 2.78866 18.333 4.16699H20V5.83301H18.333V7.5H20V9.16699H18.333V10.833H20V12.5H18.333V14.167H20V15.833H18.333V18.333H15.833V20H14.167V18.333H12.5V20H10.833V18.333H9.16699V20H7.5V18.333H5.83301V20H4.16699V18.333H1.66699V15.833H0V14.167H1.66699V12.5H0V10.833H1.66699V9.16699H0V7.5H1.66699V5.83301H0V4.16699H1.66699C1.66699 2.78866 2.78866 1.66699 4.16699 1.66699V0H5.83301ZM8.33301 7.5V12.5576H9.375V10.8105L9.97266 10.8086C10.8975 10.8085 11.6493 10.0659 11.6494 9.1543C11.6494 8.24268 10.8968 7.50008 9.97266 7.5H8.33301ZM12.499 7.5V10.8896L12.5 10.9033C12.5 11.8117 13.247 12.551 14.167 12.5576C15.091 12.5574 15.833 11.8149 15.833 10.9033V7.5H14.791V10.8896C14.791 11.2637 14.4927 11.5155 14.167 11.5156C13.827 11.5098 13.542 11.2317 13.542 10.9033V7.5H12.499ZM5.83301 7.5C4.90899 7.50017 4.16699 8.24274 4.16699 9.1543V10.9033C4.16699 11.8157 4.90899 12.5573 5.83301 12.5566C6.77967 12.5525 7.5375 11.7663 7.5 10.833H6.45801C6.49051 11.188 6.20217 11.5106 5.83301 11.5156C5.5073 11.5155 5.20898 11.2637 5.20898 10.8896V9.16797C5.20898 8.79393 5.5073 8.54216 5.83301 8.54199C6.17301 8.54783 6.45801 8.83866 6.45801 9.16699H7.5C7.5 8.25866 6.75301 7.50667 5.83301 7.5ZM9.97266 8.54199C10.3168 8.54199 10.6074 8.8218 10.6074 9.1543C10.6074 9.48675 10.3168 9.7666 9.97266 9.7666L9.38086 9.76953L9.37695 8.54199H9.97266Z" fill="#8F939F"/>
</svg>
