<svg width="20" height="17" viewBox="0 0 20 17" fill="none" xmlns="http://www.w3.org/2000/svg">
<path d="M5.83333 17V14.45H7.5V17H5.83333ZM10.8333 14.45H9.16667V17H10.8333V14.45ZM15.8333 17H17.5C18.875 17 20 15.8525 20 14.45H15.8333V17ZM14.1667 14.45H12.5V17H14.1667V14.45ZM4.16667 14.45H0C0 15.8525 1.125 17 2.5 17H4.16667V14.45ZM20 12.75H0V9.4775C0 9.163 0.175 8.874 0.45 8.721C0.941667 8.449 1.66667 7.871 1.66667 6.7915C1.66667 5.712 0.941667 5.134 0.45 4.862C0.175 4.709 0 4.4285 0 4.1055V3.383C0 1.5215 1.49167 0 3.33333 0H16.6667C18.5083 0 20 1.5215 20 3.4V4.1225C20 4.437 19.825 4.726 19.55 4.879C19.0583 5.151 18.3333 5.729 18.3333 6.8085C18.3333 7.888 19.0583 8.466 19.55 8.738C19.825 8.891 20 9.1715 20 9.4945V12.767V12.75ZM6.66667 4.25C6.66667 3.7825 6.29167 3.4 5.83333 3.4C5.375 3.4 5 3.7825 5 4.25V9.35C5 9.8175 5.375 10.2 5.83333 10.2C6.29167 10.2 6.66667 9.8175 6.66667 9.35V4.25ZM10.8333 4.25C10.8333 3.7825 10.4583 3.4 10 3.4C9.54167 3.4 9.16667 3.7825 9.16667 4.25V9.35C9.16667 9.8175 9.54167 10.2 10 10.2C10.4583 10.2 10.8333 9.8175 10.8333 9.35V4.25ZM15 4.25C15 3.7825 14.625 3.4 14.1667 3.4C13.7083 3.4 13.3333 3.7825 13.3333 4.25V9.35C13.3333 9.8175 13.7083 10.2 14.1667 10.2C14.625 10.2 15 9.8175 15 9.35V4.25Z" fill="#8F939F"/>
</svg>
