<svg width="20" height="20" viewBox="0 0 20 20" fill="none" xmlns="http://www.w3.org/2000/svg">
<path d="M1.66876 9.99976C1.66223 11.9385 2.33049 13.8193 3.5592 15.3203C4.7879 16.8212 6.50069 17.8491 8.40448 18.2281C10.3083 18.607 12.2848 18.3134 13.9958 17.3976C15.7067 16.4817 17.0459 15.0005 17.7841 13.2074C18.5222 11.4143 18.6136 9.42067 18.0424 7.56772C17.4712 5.71478 16.2731 4.11764 14.653 3.04959C13.0329 1.98154 11.0915 1.50897 9.16098 1.71272C7.23049 1.91648 5.43089 2.7839 4.0701 4.16656H7.50939V5.83319H3.2182C2.8074 5.83275 2.41355 5.66957 2.12307 5.37946C1.83259 5.08935 1.6692 4.69601 1.66876 4.28573V0H3.33751V2.56494C5.04522 1.04118 7.22484 0.148957 9.51209 0.0373691C11.7993 -0.0742183 14.0557 0.601595 15.9039 1.95186C17.7522 3.30213 19.0805 5.24505 19.6667 7.45589C20.253 9.66674 20.0617 12.0116 19.1249 14.0985C18.1881 16.1854 16.5625 17.888 14.5197 18.9217C12.477 19.9554 10.1409 20.2575 7.90189 19.7777C5.66288 19.2978 3.6566 18.065 2.21835 16.2853C0.780105 14.5056 -0.00296646 12.2868 8.55458e-06 9.99976H1.66876Z" fill="#9F9FA9"/>
</svg>
