<svg width="18" height="16" viewBox="0 0 18 16" fill="none" xmlns="http://www.w3.org/2000/svg">
<path fill-rule="evenodd" clip-rule="evenodd" d="M6.79313 0.232135C6.93031 0.376047 7.00474 0.568543 7.00005 0.76731C6.99536 0.966078 6.91194 1.15485 6.76813 1.29214L2.62213 5.25013H12.6251C14.0507 5.25013 15.4178 5.81643 16.4258 6.82444C17.4338 7.83244 18.0001 9.1996 18.0001 10.6251C18.0001 12.0507 17.4338 13.4178 16.4258 14.4258C15.4178 15.4338 14.0507 16.0001 12.6251 16.0001H9.75013C9.55121 16.0001 9.36045 15.9211 9.2198 15.7805C9.07914 15.6398 9.00013 15.449 9.00013 15.2501C9.00013 15.0512 9.07914 14.8605 9.2198 14.7198C9.36045 14.5792 9.55121 14.5001 9.75013 14.5001H12.6251C13.6528 14.5001 14.6385 14.0919 15.3652 13.3652C16.0919 12.6385 16.5001 11.6528 16.5001 10.6251C16.5001 9.59742 16.0919 8.6118 15.3652 7.8851C14.6385 7.15839 13.6528 6.75013 12.6251 6.75013H2.62213L6.76813 10.7071C6.91201 10.8445 6.99542 11.0334 7.00001 11.2323C7.00461 11.4312 6.93001 11.6238 6.79263 11.7676C6.65524 11.9115 6.46633 11.9949 6.26745 11.9995C6.06857 12.0041 5.87601 11.9295 5.73213 11.7921L0.232126 6.54213C0.158763 6.4721 0.100367 6.38792 0.0604692 6.29467C0.0205711 6.20143 0 6.10106 0 5.99963C0 5.89821 0.0205711 5.79784 0.0604692 5.7046C0.100367 5.61135 0.158763 5.52717 0.232126 5.45713L5.73213 0.207135C5.87604 0.0699496 6.06853 -0.00447916 6.2673 0.000208758C6.46607 0.00489667 6.65484 0.0883177 6.79213 0.232135H6.79313Z" fill="white"/>
</svg>
