<svg width="25" height="25" viewBox="0 0 25 25" fill="none" xmlns="http://www.w3.org/2000/svg">
<path d="M12.5001 0C15.8201 0 18.991 1.31992 21.341 3.66992C23.6808 6.01985 25.0001 9.18994 25.0001 12.5098C25.0001 14.9798 24.2608 17.3902 22.8908 19.4502C21.5208 21.5002 19.5604 23.0998 17.2804 24.0498C15.0005 24.9898 12.4807 25.2397 10.0607 24.7598C7.64069 24.2798 5.4103 23.0898 3.6603 21.3398C1.9105 19.59 0.720415 17.3602 0.240382 14.9404C-0.239618 12.5204 0.000342775 9.99973 0.950343 7.71973C1.90035 5.42982 3.50077 3.48032 5.56069 2.11035C7.61059 0.74042 10.0303 7.42823e-05 12.5001 0ZM7.00015 7L11.5343 12.4688L7.23452 17H9.07827L12.3957 13.5049L15.298 17H19.0001L14.2697 11.2354L18.2912 7H16.4503L13.4171 10.1943L10.797 7H7.00015ZM10.2414 7.96191L16.8234 15.9854H15.8039L9.14663 7.96191H10.2414Z" fill="white"/>
</svg>
