<svg width="25" height="25" viewBox="0 0 25 25" fill="none" xmlns="http://www.w3.org/2000/svg">
<path d="M12.5001 0C15.8201 0 18.991 1.31997 21.341 3.66992C23.6808 6.01985 25.0001 9.18994 25.0001 12.5098C25.0001 14.9798 24.2608 17.3902 22.8908 19.4502C21.5208 21.5002 19.5604 23.0998 17.2804 24.0498C15.0005 24.9897 12.4806 25.2397 10.0607 24.7598C7.64074 24.2797 5.41026 23.0898 3.66029 21.3398C1.91053 19.59 0.720398 17.3602 0.240372 14.9404C-0.239617 12.5205 0.000354786 9.9997 0.950333 7.71973C1.90032 5.42985 3.5008 3.48031 5.56068 2.11035C7.61054 0.740448 10.0303 0.000103743 12.5001 0ZM12.1124 6C8.77176 6 6.05245 8.71834 6.05092 12.0605C6.05041 13.1287 6.32998 14.1714 6.86049 15.0908L6.00014 18.2314L9.21303 17.3887C10.0982 17.8718 11.0954 18.1255 12.1095 18.126H12.1115C15.4515 18.126 18.1713 15.4075 18.173 12.0654C18.174 10.4463 17.5437 8.9225 16.3996 7.77734C15.255 6.63189 13.7334 6.00053 12.1124 6ZM12.1154 7.02344C13.4605 7.02356 14.7251 7.54828 15.6759 8.5C16.6269 9.45252 17.151 10.7185 17.1505 12.0645C17.1488 14.8428 14.8888 17.1025 12.1124 17.1025H12.1105C11.2064 17.1025 10.3197 16.8596 9.54604 16.4004L9.36244 16.291L7.45619 16.791L7.96498 14.9316L7.84486 14.7412C7.34039 13.9391 7.07482 13.012 7.07533 12.0605C7.07636 9.28302 9.33682 7.02344 12.1154 7.02344ZM9.96596 9.26172C9.86503 9.26179 9.70112 9.29947 9.56264 9.45117C9.42402 9.60304 9.03236 9.96975 9.03236 10.7148C9.03248 11.4601 9.57478 12.1799 9.65053 12.2812C9.72595 12.3822 10.7183 13.9124 12.2374 14.5684C12.5986 14.7242 12.8811 14.8169 13.1007 14.8867C13.4635 15.0019 13.7939 14.986 14.0548 14.9473C14.3458 14.9039 14.9509 14.5803 15.0773 14.2266C15.2035 13.873 15.2034 13.5695 15.1652 13.5068C15.1273 13.4433 15.0263 13.4049 14.8751 13.3291C14.7226 13.2526 13.981 12.8879 13.841 12.8369C13.7023 12.7865 13.6006 12.7607 13.4992 12.9121C13.3976 13.0636 13.1083 13.4055 13.0197 13.5068C12.9316 13.6074 12.8427 13.6198 12.6915 13.5439C12.5399 13.468 12.0518 13.3079 11.4738 12.792C11.0239 12.3904 10.7192 11.895 10.631 11.7432C10.543 11.5915 10.6221 11.5099 10.6974 11.4346C10.7657 11.3668 10.849 11.2576 10.9249 11.1689C11.0014 11.0813 11.0263 11.0174 11.0773 10.916C11.1274 10.8154 11.1027 10.7271 11.0646 10.6514C11.0264 10.5759 10.7237 9.8296 10.5978 9.52637C10.4751 9.23121 10.3502 9.27112 10.257 9.2666C10.1688 9.26201 10.0674 9.26172 9.96596 9.26172Z" fill="white"/>
</svg>
