<svg width="25" height="25" viewBox="0 0 25 25" fill="none" xmlns="http://www.w3.org/2000/svg">
<path d="M12.5001 0C15.8201 0 18.991 1.32001 21.3409 3.66992C23.6808 6.01985 25.0001 9.18994 25.0001 12.5098C25.0001 14.9798 24.2608 17.3902 22.8908 19.4502C21.5208 21.5001 19.5603 23.0998 17.2804 24.0498C15.0005 24.9897 12.4805 25.2397 10.0607 24.7598C7.64078 24.2797 5.41022 23.0898 3.66028 21.3398C1.91056 19.59 0.720383 17.3601 0.240363 14.9404C-0.239616 12.5205 0.000366003 9.99968 0.950324 7.71973C1.9003 5.42989 3.50084 3.48031 5.56068 2.11035C7.61049 0.740473 10.0304 0.000131242 12.5001 0ZM12.1925 8.31641C12.1505 8.31641 8.33352 8.31782 7.37708 8.5752C6.84715 8.71795 6.42907 9.13788 6.28724 9.67188C6.03051 10.6354 6.02943 12.6411 6.02943 12.6582C6.02943 12.6582 6.02941 14.6769 6.28724 15.6445C6.42898 16.178 6.84674 16.5983 7.37708 16.7412C8.33272 16.9986 12.1505 17 12.1925 17C12.1925 17 16.0475 17.0001 17.0089 16.7412C17.5388 16.5984 17.9565 16.1785 18.0988 15.6445C18.3561 14.6769 18.3556 12.6582 18.3556 12.6582C18.3556 12.6411 18.3545 10.6354 18.0978 9.67188C17.9559 9.13848 17.5383 8.71793 17.0079 8.5752C16.0464 8.31644 12.1925 8.31641 12.1925 8.31641ZM14.1534 12.6582L10.9327 14.4912V10.8252L14.1534 12.6582Z" fill="white"/>
</svg>
